<svg width="111" height="20" fill="none" xmlns="http://www.w3.org/2000/svg"><path fill-rule="evenodd" clip-rule="evenodd" d="M107.329 9.663h-5.944V6.018h-2.743v3.645h-4.8a1.6 1.6 0 0 1-1.6-1.595v-2.05h-2.744v2.05a1.6 1.6 0 0 1-3.2 0v-2.05h-2.744v2.05a1.6 1.6 0 0 1-1.6 1.595h-1.6V6.018h-2.743v3.645H62.98v2.735h3.2v.456c0 2.261-1.845 4.101-4.115 4.101a4.113 4.113 0 0 1-4.114-4.101v-3.19H55.21v3.19c0 3.77 3.076 6.836 6.857 6.836 3.782 0 6.859-3.067 6.859-6.836v-.456h13.029a4.334 4.334 0 0 0 2.972-1.176 4.334 4.334 0 0 0 2.972 1.176 4.334 4.334 0 0 0 2.972-1.176 4.332 4.332 0 0 0 2.971 1.176h16.231v-6.38h-2.743v3.645zM96.47 17.633h3.376V20h2.893v-5.207h-6.268v2.84z" fill="#12100B"/><path d="M110.073.027h-5.487V2.56h5.487V.027z" fill="#12100B"/><path d="M17.665 5.99H7.066v3.52h10.599V5.99zM17.664 13.033H0v3.521h17.664v-3.521z" fill="#FF652D"/><path d="M32.53 19.903v-2.785s3.556.32 3.944-3.514l.024-7.573h2.771v7.691s-.152 6.18-6.74 6.18zM43.456 0h-2.76v14.797h2.76V0zM32.627 6.017h-4.446s-3.674.248-3.792 4.183c.141 3.888 3.863 4.02 3.863 4.02h1.483c-.687 3.18-3.848 2.898-3.848 2.898v2.785c6.589 0 6.74-6.18 6.74-6.18V6.016zm-2.59 5.643h-1.41s-1.709.166-1.707-1.553c0-1.636 1.647-1.552 1.647-1.552h1.47v3.105zM45.108 8.738v-2.72h3.23s4.397-.142 4.512 4.157c.102 3.776-2.988 4.67-4.157 4.653-1.03-.014-3.586 0-3.586 0v-2.72l3.478.013s1.682-.276 1.558-1.799c-.123-1.493-1.64-1.57-1.64-1.57l-3.395-.014z" fill="#000"/></svg>