<svg width="92" height="20" viewBox="0 0 92 20" fill="none" xmlns="http://www.w3.org/2000/svg">
<path d="M41.4536 6.71072H38.2822V8.6143H40.7393C41.1182 8.6143 41.4815 8.7648 41.7495 9.03271C42.0174 9.30062 42.1679 9.66399 42.1679 10.0429V10.7964H38.1929V12.8214H44.075V9.33572C44.075 8.64015 43.7989 7.97301 43.3074 7.48083C42.8159 6.98865 42.1492 6.71167 41.4536 6.71072Z" fill="white"/>
<path d="M86.2463 2.41427V4.44284H90.1213V2.41427L86.2463 2.41427Z" fill="white"/>
<path d="M81.9106 15.2321H80.0642V17.2643H81.9106V19.1071H83.9392V17.2643V15.2321H81.9106Z" fill="white"/>
<path d="M69.1356 12.9286C69.9602 12.9251 70.7532 12.6115 71.3571 12.05C71.9654 12.6216 72.7688 12.9396 73.6035 12.9393C74.4495 12.9406 75.2628 12.6127 75.8714 12.025H75.8892C76.4995 12.6176 77.3172 12.9482 78.1678 12.9464H90.1106V6.65714H88.0821V10.9H83.9392V6.65714H81.9106V10.9H78.1714C77.8424 10.9 77.5268 10.7695 77.2938 10.5372C77.0608 10.3049 76.9294 9.98972 76.9285 9.66071V6.65714H74.8999V9.64285C74.9004 9.8059 74.8687 9.96743 74.8066 10.1182C74.7446 10.269 74.6533 10.406 74.5382 10.5215C74.4231 10.6369 74.2863 10.7285 74.1357 10.791C73.9851 10.8535 73.8237 10.8857 73.6606 10.8857C73.3329 10.8829 73.0195 10.7507 72.7887 10.5179C72.558 10.2851 72.4285 9.97063 72.4285 9.64285V6.64285H70.3999V9.64642C70.3999 9.9751 70.2694 10.2903 70.037 10.5227C69.8045 10.7551 69.4893 10.8857 69.1606 10.8857H67.9106V6.65714H65.8821V10.9H54.6106V12.9286H57.2392V13.2321C57.2392 13.7138 57.1443 14.1908 56.96 14.6358C56.7757 15.0808 56.5055 15.4851 56.1649 15.8257C55.8243 16.1663 55.42 16.4365 54.975 16.6208C54.53 16.8051 54.053 16.9 53.5714 16.9H53.4785C52.5379 16.8994 51.6335 16.5379 50.9517 15.89C50.2698 15.242 49.8627 14.3572 49.8142 13.4179V10.9179H47.7856V13.5286C47.7904 15.0097 48.3821 16.4286 49.4311 17.4743C50.4801 18.52 51.9009 19.1071 53.3821 19.1071H53.6749C54.4097 19.1071 55.1373 18.9624 55.8161 18.6811C56.4948 18.3998 57.1116 17.9875 57.6309 17.4678C58.1503 16.948 58.5622 16.3311 58.8431 15.6521C59.1239 14.9731 59.2683 14.2455 59.2678 13.5107V12.9286H69.1356Z" fill="white"/>
<path fill-rule="evenodd" clip-rule="evenodd" d="M17.4214 9.7893H8.09644V6.6893H17.4214V9.7893Z" fill="#F15A22"/>
<path fill-rule="evenodd" clip-rule="evenodd" d="M17.4214 15.9821H1.88208V12.8857H17.4214V15.9821Z" fill="#F15A22"/>
<path d="M31.8427 13.9607V6.71072H29.8213V14.0536C29.7964 14.6824 29.5295 15.2773 29.0762 15.7139C28.623 16.1505 28.0185 16.3951 27.3892 16.3964V18.4143C28.5541 18.4136 29.6725 17.9569 30.5049 17.1419C31.3373 16.3268 31.8175 15.2183 31.8427 14.0536V13.9607Z" fill="white"/>
<path d="M35.8928 12.8964V12.7429V0.892853H33.8713V12.8964H35.8928Z" fill="white"/>
<path d="M23.2393 6.72144C22.9852 6.72139 22.7325 6.7587 22.4893 6.83215C21.8015 6.99863 21.1934 7.39985 20.7698 7.96664C20.3462 8.53343 20.1337 9.23027 20.1688 9.93699C20.2039 10.6437 20.4845 11.316 20.9622 11.838C21.44 12.36 22.0848 12.699 22.7857 12.7964C22.931 12.8193 23.0779 12.8312 23.225 12.8321H24.375V14.0643C24.3501 14.6931 24.0831 15.288 23.6299 15.7247C23.1766 16.1613 22.5722 16.4058 21.9428 16.4071V18.425C23.1103 18.4281 24.2323 17.973 25.0678 17.1576C25.9033 16.3421 26.3854 15.2315 26.4107 14.0643V6.72144H23.2393ZM24.3893 10.9286H23.9535C23.9071 10.9286 23.2393 10.9286 23.2071 10.9286C22.9161 10.9254 22.6373 10.8112 22.4276 10.6095C22.2178 10.4078 22.0929 10.1337 22.0784 9.84304C22.0638 9.5524 22.1606 9.26715 22.3491 9.04546C22.5376 8.82376 22.8036 8.68233 23.0928 8.65001C23.1766 8.63548 23.2614 8.62831 23.3464 8.62858H24.3893V10.9286Z" fill="white"/>
</svg>
