<svg id="icons" xmlns="http://www.w3.org/2000/svg" xmlns:xlink="http://www.w3.org/1999/xlink" viewBox="0 0 128 128">


<defs><style>.cls-1,.cls-2{fill-rule:evenodd;}.cls-1{fill:url(#linear-gradient);}.cls-2,.cls-6{fill:none;stroke:rgb(20 184 166);stroke-linecap:round;stroke-linejoin:round;stroke-width:2px;}.cls-2{opacity:0.24;}.cls-3{fill:#fff;}.cls-4{fill:rgb(13 148 136);}.cls-5{fill:rgb(45 212 191);}</style>



<linearGradient id="linear-gradient" x1="101.83" y1="16.12" x2="35.2" y2="83.15" gradientTransform="matrix(-1, 0, 0, 1, 127.82, -0.15)" gradientUnits="userSpaceOnUse"><stop offset="0" stopolor="rgb(204 251 241)"/><stop offset="1" stopColor="rgb(153 246 228)"/></linearGradient></defs><title>doctor</title><path class="cls-1" d="M112.55,55.23C143.8,35.17,123.61,8.64,87.83,29.77S9.35,11.23,1.24,46.55s24.35,77.11,73.35,51.6C100.69,84.55,82,74.84,112.55,55.23Z"/><path class="cls-2" d="M10.28,62.22a40.65,40.65,0,0,1,.13-10.34"/><path class="cls-2" d="M111.59,43.58a23.71,23.71,0,0,0,5.21-5.81"/><path class="cls-2" d="M106.41,47.29a86.1,86.1,0,0,0-9.53,7.13"/><path class="cls-2" d="M11.67,46.22c1-3.11,2.46-4.64,6.46-5"/><g id="_Group_" data-name="&lt;Group&gt;"><path class="cls-3" d="M102,91v19a3,3,0,0,1-3,3H90V103A12,12,0,0,0,80,91.17v-17C87.8,77.78,102,79.4,102,91Z"/><path class="cls-4" d="M90,103v10H86V103a8,8,0,0,0-6.67-7.89,8.1,8.1,0,0,0-2.66,0A8,8,0,0,0,70,103v10H66V103a12,12,0,0,1,24,0Z"/><path class="cls-3" d="M87,37.43a5,5,0,0,1-.3,9.26A28.23,28.23,0,0,1,76.51,65.56,15.57,15.57,0,0,1,75,66.65a19.73,19.73,0,0,1-22,0,15.57,15.57,0,0,1-1.51-1.09A28.23,28.23,0,0,1,41.27,46.69a5,5,0,0,1-.3-9.26A4.93,4.93,0,0,1,43,37H85A4.93,4.93,0,0,1,87,37.43Z"/><path class="cls-5" d="M64,15c21.9,0,23.08,9.45,23,22H41C40.92,24.45,42.1,15,64,15Z"/><path class="cls-3" d="M86,103v10H70V103a8,8,0,0,1,6.67-7.89,8.1,8.1,0,0,1,2.66,0A8,8,0,0,1,86,103Z"/><path class="cls-4" d="M80,74.21v17a11.85,11.85,0,0,0-4,0V71.45a6.8,6.8,0,0,0,1.28,1.22A14,14,0,0,0,80,74.21Z"/><path class="cls-3" d="M76,73.86V91.17A12,12,0,0,0,66,103v10H29a3,3,0,0,1-3-3V91c0-11.6,14.2-13.22,22-16.79V91.29a7,7,0,1,0,4,0V73.86L64,85Z"/><path class="cls-3" d="M76,71.45v2.41L64,85,52,73.86V71.45a4.28,4.28,0,0,0,1-2.78v-2a19.73,19.73,0,0,0,22,0v2A4.28,4.28,0,0,0,76,71.45Z"/><path class="cls-4" d="M52,91.29a7,7,0,1,1-4,0,7,7,0,0,1,4,0ZM53,98a3,3,0,1,0-3,3A3,3,0,0,0,53,98Z"/><circle class="cls-5" cx="50" cy="98" r="3"/><path class="cls-4" d="M52,73.86V91.29a7,7,0,0,0-4,0V74.21a14,14,0,0,0,2.72-1.54A6.8,6.8,0,0,0,52,71.45Z"/><path class="cls-6" d="M41,37.43c0-.14,0-.29,0-.43,0-12.55,1.14-22,23-22s23.08,9.45,23,22c0,.14,0,.29,0,.43"/><line class="cls-6" x1="43" y1="37" x2="40.96" y2="37"/><line class="cls-6" x1="87.04" y1="37" x2="85" y2="37"/><path class="cls-6" d="M62,60s8,1,12-6"/><polyline class="cls-6" points="52 73.86 64 85 76 73.86"/><line class="cls-6" x1="48" y1="91.29" x2="48" y2="74.21"/><polyline class="cls-6" points="52 71.45 52 73.86 52 91.29"/><line class="cls-6" x1="80" y1="74.21" x2="80" y2="91.17"/><polyline class="cls-6" points="76 91.17 76 73.86 76 71.45"/><path class="cls-6" d="M90,113V103a12,12,0,0,0-24,0v10"/><path class="cls-6" d="M70,113V103a8,8,0,0,1,6.67-7.89,8.1,8.1,0,0,1,2.66,0A8,8,0,0,1,86,103v10"/><path class="cls-6" d="M53,66.65v2a4.28,4.28,0,0,1-1,2.78,6.8,6.8,0,0,1-1.28,1.22A14,14,0,0,1,48,74.21C40.2,77.78,26,79.4,26,91v19a3,3,0,0,0,3,3H99a3,3,0,0,0,3-3V91c0-11.6-14.2-13.22-22-16.79a14,14,0,0,1-2.72-1.54A6.8,6.8,0,0,1,76,71.45a4.28,4.28,0,0,1-1-2.78v-2"/><path class="cls-6" d="M52,91.29a7,7,0,1,1-4,0,7,7,0,0,1,4,0Z"/><circle class="cls-6" cx="50" cy="98" r="3"/><path class="cls-6" d="M87,37.43a5,5,0,0,1-.3,9.26A28.23,28.23,0,0,1,76.51,65.56,15.57,15.57,0,0,1,75,66.65a19.73,19.73,0,0,1-22,0,15.57,15.57,0,0,1-1.51-1.09A28.23,28.23,0,0,1,41.27,46.69a5,5,0,0,1-.3-9.26A4.93,4.93,0,0,1,43,37H85A4.93,4.93,0,0,1,87,37.43Z"/></g></svg>