<svg id="Layer_1" data-name="Layer 1" xmlns="http://www.w3.org/2000/svg" viewBox="0 0 256 56"><defs><style>.cls-1{fill:#f15a22;fill-rule:evenodd}</style></defs><path d="M115.27 18.79h-8.88v5.33h6.88a4 4 0 0 1 4 4v2.11h-11.13v5.67h16.47v-9.76a7.35 7.35 0 0 0-7.34-7.35z"/><path transform="rotate(-90 246.11 9.6)" d="M243.27 4.18h5.68v10.85h-5.68z"/><path d="M228.55 42.65h-5.17v5.69h5.17v5.16h5.68V42.65h-5.68zM192.78 36.2a9.19 9.19 0 0 0 6.22-2.46 9.18 9.18 0 0 0 6.29 2.49 9.12 9.12 0 0 0 6.35-2.56h.05a9.13 9.13 0 0 0 6.38 2.58h33.44V18.64h-5.68v11.88h-11.6V18.64h-5.68v11.88h-10.47a3.48 3.48 0 0 1-3.48-3.47v-8.41h-5.68V27a3.47 3.47 0 0 1-3.47 3.48A3.48 3.48 0 0 1 202 27v-8.4h-5.68v8.41a3.47 3.47 0 0 1-3.47 3.47h-3.5V18.64h-5.68v11.88h-31.56v5.68h7.36v.85a10.27 10.27 0 0 1-10.27 10.27h-.26a10.28 10.28 0 0 1-10.26-9.75v-7H133v7.31a15.67 15.67 0 0 0 15.67 15.62h.82a15.66 15.66 0 0 0 15.66-15.67V36.2h27.63z"/><path id="Fill-2" class="cls-1" d="M47.98 27.41H21.87v-8.68h26.11v8.68z"/><path id="Fill-3" class="cls-1" d="M47.98 44.75H4.47v-8.67h43.51v8.67z"/><path d="M88.36 39.09v-20.3H82.7v20.56a6.83 6.83 0 0 1-6.81 6.56v5.65a12.48 12.48 0 0 0 12.47-12.21zM99.7 36.11V2.5h-5.66v33.61h5.66zM64.27 18.82a7.26 7.26 0 0 0-2.1.31 8.51 8.51 0 0 0 .83 16.7 8.28 8.28 0 0 0 1.23.1h3.22v3.45a6.83 6.83 0 0 1-6.81 6.56v5.65a12.48 12.48 0 0 0 12.51-12.21V18.82h-8.88zm3.22 11.78H64.18a3.2 3.2 0 0 1-.32-6.38 4.08 4.08 0 0 1 .71-.06h2.92z"/></svg>