<svg width="121" height="20" viewBox="0 0 121 20" fill="none" xmlns="http://www.w3.org/2000/svg">
<path fill-rule="evenodd" clip-rule="evenodd" d="M118.18 9.66152H112.235V6.01544H109.491V9.66152H104.69C103.808 9.66152 103.09 8.94542 103.09 8.06643V6.01544H100.346V8.06643C100.346 8.94542 99.6279 9.66152 98.7458 9.66152C97.8636 9.66152 97.1454 8.94542 97.1454 8.06643V6.01544H94.4016V8.06643C94.4016 8.94542 93.6834 9.66152 92.8012 9.66152H91.2019V6.01544H88.4581V9.66152H73.8262V12.3969H77.0269V12.8528C77.0269 15.1142 75.1811 16.9547 72.9112 16.9547C70.6423 16.9547 68.7966 15.1142 68.7966 12.8528V9.66258H66.0527V12.8528C66.0527 16.6226 69.1297 19.6901 72.9112 19.6901C76.6937 19.6901 79.7707 16.6226 79.7707 12.8528V12.3969H88.4581H91.2019H92.8023C93.951 12.3969 94.9971 11.9494 95.7745 11.2206C96.552 11.9494 97.5981 12.3969 98.7468 12.3969C99.8955 12.3969 100.942 11.9494 101.719 11.2206C102.497 11.9494 103.542 12.3969 104.691 12.3969H109.493H112.236H120.925V6.01544H118.181L118.18 9.66152Z" fill="#12100B"/>
<path fill-rule="evenodd" clip-rule="evenodd" d="M107.32 17.6327H110.695V20H113.588V14.7927H107.32V17.6327Z" fill="#12100B"/>
<path d="M120.923 0.0243378H115.436V2.5566H120.923V0.0243378Z" fill="#12100B"/>
<path d="M17.6666 5.85361H7.06689V9.37592H17.6666V5.85361Z" fill="#FF652D"/>
<path d="M17.6666 12.8972H0V16.4195H17.6666V12.8972Z" fill="#FF652D"/>
<path d="M55.5205 6.04719V3.18702H58.9148C58.9148 3.18702 63.5372 3.03788 63.6589 7.5566C63.7657 11.5253 60.5184 12.4656 59.2893 12.4476C58.2061 12.4318 55.5205 12.4476 55.5205 12.4476V9.58748L59.175 9.60124C59.175 9.60124 60.9436 9.31141 60.8125 7.70997C60.6834 6.14027 59.0883 6.05988 59.0883 6.05988L55.5205 6.04719Z" fill="black"/>
<path d="M54.1984 9.72287C54.1043 6.44489 52.5187 4.85191 51.2039 4.0935C49.8172 3.29278 48.4675 3.26952 48.3184 3.26952H46.0548V6.01967H48.3184C48.3258 6.01967 49.0863 6.04612 49.8289 6.47557C50.8179 7.04675 51.3594 8.10239 51.4419 9.61498H42.7578V5.94669H40.0076V9.61498H36.8619H31.4409V5.83563H28.6907V11.868C28.5786 12.4074 27.8879 14.7525 24.4058 14.7652L24.4163 17.5153C27.6044 17.5037 29.3444 16.0789 30.2424 14.8847C31.0315 13.8365 31.3097 12.7893 31.3954 12.3641H36.8619H42.7578H54.1995V9.76201L54.1984 9.72287Z" fill="#12100B"/>
<path d="M54.1878 0H46.0664V2.75016H54.1878V0Z" fill="#12100B"/>
<path d="M42.7448 0.0264435H37.0752V2.7766H42.7448V0.0264435Z" fill="#12100B"/>
</svg>
