<svg width="115" height="132" viewBox="0 0 115 132" fill="none" xmlns="http://www.w3.org/2000/svg">
<path d="M49.7462 24.2268C52.693 19.2607 59.77 18.9572 63.1312 23.6528L103.182 79.6047C106.881 84.7721 103.369 91.9816 97.0201 92.2539L21.8546 95.4772C15.5056 95.7494 11.389 88.8671 14.6319 83.402L49.7462 24.2268Z" fill="url(#paint0_linear_9_171116)"/>
<path d="M49.7462 24.2268C52.693 19.2607 59.77 18.9572 63.1312 23.6528L103.182 79.6047C106.881 84.7721 103.369 91.9816 97.0201 92.2539L21.8546 95.4772C15.5056 95.7494 11.389 88.8671 14.6319 83.402L49.7462 24.2268Z" fill="url(#paint1_linear_9_171116)"/>
<path d="M53.9567 47.8097C53.8857 46.1544 55.17 44.755 56.8254 44.684C58.4807 44.613 59.8802 45.8974 59.9511 47.5527L60.8937 69.5325C60.9647 71.1878 59.6803 72.5873 58.025 72.6583C56.3697 72.7292 54.9702 71.4449 54.8992 69.7895L53.9567 47.8097Z" fill="#996F00"/>
<rect x="55.2812" y="78.7812" width="6" height="6" rx="3" transform="rotate(-2.45551 55.2812 78.7812)" fill="#996F00"/>
<defs>
<linearGradient id="paint0_linear_9_171116" x1="76.499" y1="45.498" x2="24.3705" y2="90.6583" gradientUnits="userSpaceOnUse">
<stop stop-color="#FFE3AC"/>
<stop offset="1" stop-color="#FFCF70"/>
</linearGradient>
<linearGradient id="paint1_linear_9_171116" x1="76.4992" y1="32.5" x2="30.9508" y2="83.5312" gradientUnits="userSpaceOnUse">
<stop stop-color="#FFE3AC"/>
<stop offset="1" stop-color="#FFC043"/>
</linearGradient>
</defs>
</svg>
