<svg width="241" height="257" viewBox="0 0 241 257" fill="none" xmlns="http://www.w3.org/2000/svg">
<path fill-rule="evenodd" clip-rule="evenodd" d="M169.085 13.0084C167.998 8.54693 163.911 5.47491 159.323 5.67165L71.229 9.44939C67.1186 9.62565 63.5694 12.4135 62.4065 16.3598C46.1288 71.5989 40.8279 90.3166 31.9971 121.498C27.7537 136.482 22.6952 154.344 15.212 180.519C13.3953 186.874 18.3719 193.136 24.9715 192.788L42.3394 191.871C46.6223 191.645 50.2387 188.613 51.2072 184.434L63.165 132.847C64.1414 128.635 67.8075 125.591 72.1275 125.406L149.135 122.103C154.343 121.88 158.782 125.844 159.147 131.045L162.304 176.071C162.671 181.309 167.168 185.285 172.411 185.008L198.908 183.61C204.928 183.293 209.177 177.58 207.75 171.723L169.085 13.0084Z" fill="#E1E3E3"/>
<mask id="path-2-inside-1_9_171101" fill="white">
<path fill-rule="evenodd" clip-rule="evenodd" d="M173.154 13.3171C171.808 7.69545 165.844 4.52076 160.429 6.54276L115.884 23.1753C112.835 24.3137 110.566 26.9222 109.858 30.0987C100.011 74.2953 93.7537 104.148 87.496 134C86.8563 137.052 86.2166 140.103 85.573 143.17C84.315 149.166 88.9011 154.799 95.0273 154.778L169.988 154.525C174.628 154.51 178.619 157.808 179.477 162.368L192.305 230.514C193.183 235.183 197.338 238.511 202.086 238.352L215.063 237.915C221.148 237.71 225.516 231.977 224.098 226.056L173.154 13.3171Z"/>
</mask>
<path fill-rule="evenodd" clip-rule="evenodd" d="M173.154 13.3171C171.808 7.69545 165.844 4.52076 160.429 6.54276L115.884 23.1753C112.835 24.3137 110.566 26.9222 109.858 30.0987C100.011 74.2953 93.7537 104.148 87.496 134C86.8563 137.052 86.2166 140.103 85.573 143.17C84.315 149.166 88.9011 154.799 95.0273 154.778L169.988 154.525C174.628 154.51 178.619 157.808 179.477 162.368L192.305 230.514C193.183 235.183 197.338 238.511 202.086 238.352L215.063 237.915C221.148 237.71 225.516 231.977 224.098 226.056L173.154 13.3171Z" fill="url(#paint0_linear_9_171101)"/>
<path d="M87.496 134L89.4534 134.41L87.496 134ZM169.988 154.525L169.994 156.525L169.988 154.525ZM179.477 162.368L177.512 162.738L179.477 162.368ZM95.0273 154.778L95.034 156.778L95.0273 154.778ZM160.429 6.54276L159.729 4.66911L160.429 6.54276ZM173.154 13.3171L171.209 13.7828L173.154 13.3171ZM192.305 230.514L190.339 230.884L192.305 230.514ZM116.583 25.0489L161.129 8.41642L159.729 4.66911L115.184 21.3016L116.583 25.0489ZM89.4534 134.41C95.7108 104.56 101.966 74.7175 111.81 30.5336L107.906 29.6638C98.0564 73.8732 91.7966 103.736 85.5385 133.59L89.4534 134.41ZM87.5304 143.581C88.174 140.514 88.8137 137.462 89.4534 134.41L85.5385 133.59C84.8988 136.641 84.2591 139.693 83.6157 142.76L87.5304 143.581ZM95.034 156.778L169.994 156.525L169.981 152.525L95.0205 152.778L95.034 156.778ZM177.512 162.738L190.339 230.884L194.27 230.144L181.443 161.998L177.512 162.738ZM214.996 235.916L202.018 236.353L202.153 240.351L215.13 239.914L214.996 235.916ZM171.209 13.7828L222.153 226.522L226.043 225.59L175.099 12.8513L171.209 13.7828ZM215.13 239.914C222.48 239.666 227.756 232.742 226.043 225.59L222.153 226.522C223.276 231.212 219.816 235.754 214.996 235.916L215.13 239.914ZM169.994 156.525C173.67 156.513 176.832 159.126 177.512 162.738L181.443 161.998C180.406 156.49 175.586 152.506 169.981 152.525L169.994 156.525ZM83.6157 142.76C82.0965 150 87.6344 156.803 95.034 156.778L95.0205 152.778C90.1679 152.795 86.5335 148.332 87.5304 143.581L83.6157 142.76ZM161.129 8.41642C165.418 6.81464 170.142 9.32955 171.209 13.7828L175.099 12.8513C173.473 6.06136 166.27 2.22687 159.729 4.66911L161.129 8.41642ZM190.339 230.884C191.401 236.523 196.418 240.544 202.153 240.351L202.018 236.353C198.257 236.479 194.966 233.842 194.27 230.144L190.339 230.884ZM115.184 21.3016C111.5 22.677 108.761 25.8274 107.906 29.6638L111.81 30.5336C112.371 28.0169 114.169 25.9503 116.583 25.0489L115.184 21.3016Z" fill="#F5F7F7" mask="url(#path-2-inside-1_9_171101)"/>
<mask id="path-4-inside-2_9_171101" fill="white">
<path fill-rule="evenodd" clip-rule="evenodd" d="M89.1896 17.5169C89.9922 11.5773 85.2286 6.35687 79.2406 6.61365L76.678 6.72354C72.3297 6.91001 68.6446 9.99833 67.7061 14.2483C58.0836 57.8208 51.5279 92.2499 44.9723 126.679C38.672 159.767 32.3718 192.854 23.3495 234.058C21.9952 240.242 26.8533 246.052 33.1788 245.781L50.4456 245.04C55.1019 244.841 58.9459 241.333 59.57 236.714L89.1896 17.5169Z"/>
</mask>
<path d="M44.9723 126.679L46.937 127.053L44.9723 126.679ZM59.57 236.714L61.5519 236.982L59.57 236.714ZM23.3495 234.058L21.3958 233.63L23.3495 234.058ZM89.1896 17.5169L87.2076 17.249L89.1896 17.5169ZM67.7061 14.2483L65.7531 13.817L67.7061 14.2483ZM76.7637 8.72171L79.3263 8.61182L79.1549 4.61549L76.5923 4.72538L76.7637 8.72171ZM46.937 127.053C53.4925 92.6246 60.0435 58.2208 69.659 14.6795L65.7531 13.817C56.1238 57.4207 49.5633 91.8753 43.0076 126.305L46.937 127.053ZM25.3032 234.485C34.332 193.253 40.6367 160.141 46.937 127.053L43.0076 126.305C36.7074 159.392 30.4116 192.456 21.3958 233.63L25.3032 234.485ZM50.3599 243.042L33.0931 243.783L33.2645 247.779L50.5312 247.039L50.3599 243.042ZM61.5519 236.982L91.1716 17.7847L87.2076 17.249L57.588 236.447L61.5519 236.982ZM50.5312 247.039C56.1553 246.797 60.7981 242.561 61.5519 236.982L57.588 236.447C57.0936 240.105 54.0485 242.884 50.3599 243.042L50.5312 247.039ZM21.3958 233.63C19.7624 241.089 25.6204 248.107 33.2645 247.779L33.0931 243.783C28.0862 243.997 24.228 239.396 25.3032 234.485L21.3958 233.63ZM79.3263 8.61182C84.0698 8.4084 87.8434 12.5439 87.2076 17.249L91.1716 17.7847C92.141 10.6107 86.3874 4.30534 79.1549 4.61549L79.3263 8.61182ZM76.5923 4.72538C71.3397 4.95063 66.8874 8.68077 65.7531 13.817L69.659 14.6795C70.4018 11.3159 73.3197 8.8694 76.7637 8.72171L76.5923 4.72538Z" fill="#F5F7F7" mask="url(#path-4-inside-2_9_171101)"/>
<g filter="url(#filter0_f_9_171101)">
<path d="M15.5005 206.5C15.5005 206.5 13.5006 218 38.0006 213" stroke="#B1B2B2"/>
</g>
<g filter="url(#filter1_f_9_171101)">
<path d="M173.5 199.5C173.5 199.5 171.501 211 196.001 206" stroke="#B1B2B2"/>
</g>
<path fill-rule="evenodd" clip-rule="evenodd" d="M184.868 10.1484C183.868 5.57902 179.728 2.39022 175.055 2.59062L78.6744 6.7237C74.3261 6.91017 70.641 9.99849 69.7024 14.2484C60.08 57.8209 53.5243 92.2501 46.9687 126.679C40.6691 159.763 34.3696 192.847 25.3489 234.044C23.9937 240.233 28.8593 246.045 35.1888 245.767L58.6401 244.735C62.9561 244.545 66.6166 241.503 67.5921 237.294L84.5727 164.038C85.5491 159.826 89.2152 156.782 93.5352 156.597L171.585 153.25C176.359 153.045 180.561 156.375 181.452 161.069L194.633 230.501C195.525 235.199 199.733 238.53 204.511 238.32L223.078 237.503C229.043 237.241 233.332 231.665 232.056 225.832L184.868 10.1484Z" fill="url(#paint1_linear_9_171101)"/>
<path d="M120.746 57.2268C123.693 52.2607 130.77 51.9572 134.131 56.6528L174.182 112.605C177.881 117.772 174.369 124.982 168.02 125.254L92.8546 128.477C86.5056 128.749 82.389 121.867 85.6319 116.402L120.746 57.2268Z" fill="url(#paint2_linear_9_171101)"/>
<path d="M120.746 57.2268C123.693 52.2607 130.77 51.9572 134.131 56.6528L174.182 112.605C177.881 117.772 174.369 124.982 168.02 125.254L92.8546 128.477C86.5056 128.749 82.389 121.867 85.6319 116.402L120.746 57.2268Z" fill="url(#paint3_linear_9_171101)"/>
<path d="M124.957 80.8097C124.886 79.1544 126.17 77.755 127.825 77.684C129.481 77.613 130.88 78.8974 130.951 80.5527L131.894 102.532C131.965 104.188 130.68 105.587 129.025 105.658C127.37 105.729 125.97 104.445 125.899 102.79L124.957 80.8097Z" fill="#996F00"/>
<rect x="126.281" y="111.781" width="6" height="6" rx="3" transform="rotate(-2.45551 126.281 111.781)" fill="#996F00"/>
<defs>
<filter id="filter0_f_9_171101" x="0.960938" y="192.415" width="51.1406" height="36.3447" filterUnits="userSpaceOnUse" color-interpolation-filters="sRGB">
<feFlood flood-opacity="0" result="BackgroundImageFix"/>
<feBlend mode="normal" in="SourceGraphic" in2="BackgroundImageFix" result="shape"/>
<feGaussianBlur stdDeviation="7" result="effect1_foregroundBlur_9_171101"/>
</filter>
<filter id="filter1_f_9_171101" x="158.961" y="185.415" width="51.1406" height="36.3447" filterUnits="userSpaceOnUse" color-interpolation-filters="sRGB">
<feFlood flood-opacity="0" result="BackgroundImageFix"/>
<feBlend mode="normal" in="SourceGraphic" in2="BackgroundImageFix" result="shape"/>
<feGaussianBlur stdDeviation="7" result="effect1_foregroundBlur_9_171101"/>
</filter>
<linearGradient id="paint0_linear_9_171101" x1="176.008" y1="18.9795" x2="50.0197" y2="207.919" gradientUnits="userSpaceOnUse">
<stop offset="0.353323" stop-color="#F5F7F7"/>
<stop offset="1" stop-color="#EAEDED"/>
</linearGradient>
<linearGradient id="paint1_linear_9_171101" x1="168.108" y1="16.6448" x2="60.0565" y2="244.082" gradientUnits="userSpaceOnUse">
<stop offset="0.353323" stop-color="#F5F7F7"/>
<stop offset="1" stop-color="#EAEDED"/>
</linearGradient>
<linearGradient id="paint2_linear_9_171101" x1="147.499" y1="78.498" x2="95.3705" y2="123.658" gradientUnits="userSpaceOnUse">
<stop stop-color="#FFE3AC"/>
<stop offset="1" stop-color="#FFCF70"/>
</linearGradient>
<linearGradient id="paint3_linear_9_171101" x1="147.499" y1="65.5" x2="101.951" y2="116.531" gradientUnits="userSpaceOnUse">
<stop stop-color="#FFE3AC"/>
<stop offset="1" stop-color="#FFC043"/>
</linearGradient>
</defs>
</svg>
