<svg width="360" height="44" viewBox="0 0 360 44" fill="none" xmlns="http://www.w3.org/2000/svg">
<path fill-rule="evenodd" clip-rule="evenodd" d="M42.5026 16C42.5026 9.37258 47.8751 4 54.5026 4C58.9208 4 62.5026 7.58172 62.5026 12C62.5026 16.4183 58.9208 20 54.5026 20H44.5026C43.398 20 42.5026 19.1046 42.5026 18V16ZM54.5026 18H44.5026V16C44.5026 15.6625 44.5193 15.3289 44.5519 15H50.9556C52.9131 15 54.5 13.4131 54.5 11.4556C54.5 10.1347 53.7655 8.9234 52.5942 8.31275L50.1063 7.01569C51.4331 6.36521 52.9252 6 54.5026 6C57.8163 6 60.5026 8.68629 60.5026 12C60.5026 15.3137 57.8163 18 54.5026 18ZM44.9604 13H50.9556C51.8086 13 52.5 12.3086 52.5 11.4556C52.5 10.8801 52.1799 10.3523 51.6696 10.0862L48.1689 8.2611C46.6807 9.48051 45.5506 11.1207 44.9604 13Z" fill="#B1B2B2"/>
<rect width="45" height="4" transform="translate(72.5 10)" fill="#EAEDED"/>
<path d="M141 15.5C141.828 15.5 142.5 14.8284 142.5 14C142.5 13.1716 141.828 12.5 141 12.5C140.172 12.5 139.5 13.1716 139.5 14C139.5 14.8284 140.172 15.5 141 15.5Z" fill="#B1B2B2"/>
<path fill-rule="evenodd" clip-rule="evenodd" d="M145.5 5V3H130.5L130.324 3.00509C128.807 3.09296 127.593 4.30725 127.505 5.82373L127.5 6V19L127.505 19.1493C127.582 20.1841 128.446 21 129.5 21H145.5L145.649 20.9945C146.684 20.9182 147.5 20.0544 147.5 19V9L147.495 8.85074C147.418 7.81588 146.554 7 145.5 7H130.5L130.383 6.99327C129.886 6.93551 129.5 6.51284 129.5 6C129.5 5.44772 129.948 5 130.5 5H145.5ZM129.5 19V8.829L129.648 8.87737C129.918 8.95717 130.204 9 130.5 9H145.5V19H129.5Z" fill="#B1B2B2"/>
<rect width="45" height="4" transform="translate(157.5 10)" fill="#EAEDED"/>
<path d="M218.5 3V5H216.5V9C216.5 11.21 218.29 13 220.5 13C222.71 13 224.5 11.21 224.5 9V5H222.5V3H225.5C225.765 3 226.02 3.10536 226.207 3.29289C226.395 3.48043 226.5 3.73478 226.5 4V9C226.5 10.418 225.998 11.7901 225.082 12.8732C224.167 13.9562 222.898 14.6803 221.5 14.917V16.5C221.499 17.3196 221.787 18.1134 222.311 18.7431C222.836 19.3727 223.565 19.7982 224.371 19.9454C225.178 20.0926 226.01 19.9522 226.723 19.5486C227.437 19.1451 227.986 18.5039 228.275 17.737C227.632 17.4484 227.11 16.9424 226.803 16.3078C226.495 15.6732 226.421 14.9505 226.593 14.2666C226.766 13.5828 227.174 12.9815 227.745 12.5684C228.317 12.1552 229.015 11.9566 229.719 12.0074C230.422 12.0583 231.085 12.3552 231.591 12.8462C232.097 13.3372 232.415 13.9908 232.487 14.6923C232.559 15.3938 232.382 16.0983 231.986 16.6822C231.591 17.266 231.002 17.6919 230.324 17.885C229.988 19.1808 229.191 20.3096 228.083 21.0598C226.974 21.81 225.63 22.1302 224.302 21.9603C222.974 21.7904 221.754 21.1421 220.87 20.1369C219.986 19.1317 219.499 17.8386 219.5 16.5V14.917C218.102 14.6805 216.833 13.9565 215.917 12.8734C215.002 11.7902 214.5 10.418 214.5 9V4C214.5 3.73478 214.605 3.48043 214.793 3.29289C214.98 3.10536 215.235 3 215.5 3H218.5Z" fill="#B1B2B2"/>
<g clip-path="url(#clip0_4379_41450)">
<rect width="45" height="4" transform="translate(242.5 10)" fill="#EAEDED"/>
<rect width="22.5" height="4" transform="translate(265 10)" fill="url(#paint0_linear_4379_41450)"/>
</g>
<path d="M314.5 5V14H309.5V19H300.5V5H314.5ZM314.5 3H300.5C299.4 3 298.5 3.9 298.5 5V19C298.5 20.1 299.4 21 300.5 21H310.5L316.5 15V5C316.5 3.9 315.6 3 314.5 3ZM307.5 14H302.5V12H307.5V14ZM312.5 10H302.5V8H312.5V10Z" fill="url(#paint1_linear_4379_41450)"/>
<path d="M27.1924 37.3262C27.1924 38.013 27.0964 38.5859 26.9043 39.0449C26.7122 39.5039 26.4193 39.8473 26.0254 40.0752C25.6348 40.3063 25.14 40.4219 24.541 40.4219C23.9225 40.4219 23.4115 40.3096 23.0078 40.085C22.6074 39.8636 22.3096 39.5495 22.1143 39.1426C21.9222 38.7357 21.8262 38.2539 21.8262 37.6973C21.8262 37.3392 21.8652 36.9697 21.9434 36.5889C22.0215 36.2048 22.1289 35.8337 22.2656 35.4756L23.2178 35.8516C23.1201 36.1478 23.0322 36.4603 22.9541 36.7891C22.8792 37.1146 22.8418 37.4238 22.8418 37.7168C22.8418 38.0553 22.9004 38.3434 23.0176 38.5811C23.138 38.8219 23.3219 39.0042 23.5693 39.1279C23.82 39.2549 24.1439 39.3184 24.541 39.3184C24.9219 39.3184 25.2311 39.2467 25.4688 39.1035C25.7064 38.9635 25.8789 38.752 25.9863 38.4688C26.097 38.1888 26.1523 37.8372 26.1523 37.4141V31.2227H27.1924V37.3262ZM28.6133 31.2227H29.6533V35.8027C29.6533 36.2129 29.7217 36.4961 29.8584 36.6523C29.9984 36.8053 30.2344 36.8818 30.5664 36.8818H30.6885V38H30.5664C29.8958 38 29.4027 37.8258 29.0869 37.4775C28.7712 37.126 28.6133 36.584 28.6133 35.8516V31.2227ZM33.9014 38C33.5465 38 33.2633 37.9398 33.0518 37.8193C32.8402 37.6956 32.6693 37.5264 32.5391 37.3115C32.373 37.5296 32.1696 37.6989 31.9287 37.8193C31.6878 37.9398 31.3607 38 30.9473 38H30.498V36.8818H30.957C31.2174 36.8818 31.429 36.8558 31.5918 36.8037C31.7546 36.7516 31.8734 36.6589 31.9482 36.5254C32.0264 36.3887 32.0654 36.1934 32.0654 35.9395C32.0654 35.8841 32.0638 35.8109 32.0605 35.7197C32.0573 35.6286 32.0508 35.5244 32.041 35.4072C32.0312 35.29 32.0215 35.1663 32.0117 35.0361L33.0078 34.9141L33.0957 36.0664C33.112 36.3138 33.1868 36.5124 33.3203 36.6621C33.4538 36.8086 33.6507 36.8818 33.9111 36.8818C34.2236 36.8818 34.4336 36.8053 34.541 36.6523C34.6517 36.4993 34.707 36.2617 34.707 35.9395C34.707 35.8874 34.7054 35.8158 34.7021 35.7246C34.6989 35.6302 34.6924 35.5244 34.6826 35.4072C34.6729 35.29 34.6631 35.1663 34.6533 35.0361L35.6494 34.9141L35.7373 36.0664C35.7503 36.3008 35.8105 36.4961 35.918 36.6523C36.0254 36.8053 36.2028 36.8818 36.4502 36.8818C36.6097 36.8818 36.7334 36.8411 36.8213 36.7598C36.9124 36.6751 36.9775 36.5628 37.0166 36.4229C37.0557 36.2829 37.0752 36.1315 37.0752 35.9688C37.0752 35.7962 37.0605 35.6204 37.0312 35.4414C37.0052 35.2624 36.9743 35.0964 36.9385 34.9434C36.9059 34.7871 36.8766 34.665 36.8506 34.5771L37.876 34.2988C37.9378 34.5365 37.9883 34.7871 38.0273 35.0508C38.0664 35.3145 38.0859 35.5781 38.0859 35.8418C38.0859 36.2161 38.0339 36.5677 37.9297 36.8965C37.8288 37.2253 37.6595 37.4906 37.4219 37.6924C37.1875 37.8942 36.8669 37.9967 36.46 38C36.154 38 35.9033 37.9382 35.708 37.8145C35.5127 37.6875 35.3516 37.5182 35.2246 37.3066C35.0488 37.5312 34.8519 37.7038 34.6338 37.8242C34.4157 37.9414 34.1715 38 33.9014 38ZM37.9834 40.6416L37.6074 39.6357C38.112 39.5251 38.527 39.3672 38.8525 39.1621C39.1813 38.9603 39.4255 38.7064 39.585 38.4004C39.7445 38.0977 39.8242 37.738 39.8242 37.3213C39.8242 37.0348 39.7868 36.7256 39.7119 36.3936C39.637 36.0615 39.5459 35.736 39.4385 35.417L40.4688 35.0752C40.5892 35.417 40.6803 35.7686 40.7422 36.1299C40.8073 36.4912 40.8398 36.8411 40.8398 37.1797C40.8398 37.7852 40.7308 38.3255 40.5127 38.8008C40.2946 39.276 39.974 39.6715 39.5508 39.9873C39.1276 40.3031 38.6051 40.5212 37.9834 40.6416ZM43.042 31.2227V37.9951H42.002V31.2227H43.042ZM50.4639 37.0576C50.4639 37.7445 50.3369 38.3288 50.083 38.8105C49.8291 39.2956 49.458 39.6878 48.9697 39.9873C48.4847 40.2868 47.8939 40.5033 47.1973 40.6367L46.8213 39.6309C47.2965 39.5365 47.7132 39.4095 48.0713 39.25C48.4326 39.0938 48.724 38.9017 48.9453 38.6738C49.1699 38.4492 49.3148 38.1921 49.3799 37.9023C49.2725 37.9316 49.1536 37.9577 49.0234 37.9805C48.8932 38.0033 48.7777 38.0146 48.6768 38.0146C48.0778 38.0146 47.6156 37.8844 47.29 37.624C46.9678 37.3604 46.8066 36.9502 46.8066 36.3936C46.8066 36.1429 46.8441 35.8906 46.9189 35.6367C46.9938 35.3796 47.1045 35.1436 47.251 34.9287C47.4007 34.7139 47.583 34.5413 47.7979 34.4111C48.016 34.2809 48.265 34.2158 48.5449 34.2158C48.8737 34.2158 49.1585 34.2956 49.3994 34.4551C49.6403 34.6146 49.8389 34.8311 49.9951 35.1045C50.1514 35.3747 50.2686 35.679 50.3467 36.0176C50.4248 36.3529 50.4639 36.6995 50.4639 37.0576ZM48.6816 36.9014C48.8216 36.9014 48.9583 36.8916 49.0918 36.8721C49.2253 36.8525 49.3473 36.8265 49.458 36.7939C49.4417 36.5889 49.4108 36.3968 49.3652 36.2178C49.3229 36.0355 49.2643 35.876 49.1895 35.7393C49.1178 35.6025 49.0267 35.4967 48.916 35.4219C48.8086 35.347 48.6816 35.3096 48.5352 35.3096C48.3464 35.3096 48.1982 35.3698 48.0908 35.4902C47.9867 35.6107 47.9134 35.7523 47.8711 35.915C47.8288 36.0778 47.8076 36.2227 47.8076 36.3496C47.8076 36.5612 47.8841 36.7061 48.0371 36.7842C48.1901 36.8623 48.4049 36.9014 48.6816 36.9014ZM58.8379 32.9609L59.5898 33.708L58.8379 34.4648L58.0957 33.708L58.8379 32.9609ZM57.207 32.9609L57.959 33.708L57.207 34.4648L56.46 33.708L57.207 32.9609ZM60.8643 34.9092L61.8555 34.7871L61.9482 36.042C61.9645 36.3252 62.0426 36.5368 62.1826 36.6768C62.3226 36.8135 62.5391 36.8818 62.832 36.8818H62.9492V38H62.832C62.4642 38 62.1582 37.9316 61.9141 37.7949C61.6732 37.6549 61.4746 37.4466 61.3184 37.1699C61.0384 37.4661 60.6868 37.6794 60.2637 37.8096C59.8405 37.9365 59.2692 38 58.5498 38H57.7344C57.1419 38 56.6113 37.9626 56.1426 37.8877C55.6771 37.8128 55.2816 37.6875 54.9561 37.5117C54.6305 37.3359 54.3815 37.0999 54.209 36.8037C54.0397 36.5075 53.9551 36.1348 53.9551 35.6855C53.9551 35.4316 53.9827 35.1842 54.0381 34.9434C54.0967 34.6992 54.1699 34.4697 54.2578 34.2549L55.1953 34.6064C55.1432 34.7529 55.0944 34.9173 55.0488 35.0996C55.0065 35.2786 54.9854 35.4495 54.9854 35.6123C54.9854 35.8792 55.0488 36.0957 55.1758 36.2617C55.306 36.4277 55.4899 36.5563 55.7275 36.6475C55.9684 36.7354 56.2565 36.7972 56.5918 36.833C56.9303 36.8656 57.3112 36.8818 57.7344 36.8818H58.5498C59.0479 36.8818 59.4727 36.8542 59.8242 36.7988C60.1758 36.7435 60.4443 36.6426 60.6299 36.4961C60.8187 36.3496 60.9131 36.1396 60.9131 35.8662C60.9131 35.7197 60.9082 35.5602 60.8984 35.3877C60.8887 35.2119 60.8773 35.0524 60.8643 34.9092ZM65.7959 31.5254L66.5771 32.3066L65.7959 33.0879L65.0146 32.3066L65.7959 31.5254ZM62.7539 36.8818H63.584C63.9355 36.8818 64.2611 36.8525 64.5605 36.7939C64.8633 36.7354 65.1595 36.654 65.4492 36.5498C65.7422 36.4424 66.0482 36.3138 66.3672 36.1641C66.6895 36.0111 67.0475 35.8418 67.4414 35.6562C67.2005 35.5684 66.9661 35.4805 66.7383 35.3926C66.5137 35.3014 66.3037 35.2184 66.1084 35.1436C65.9163 35.0687 65.7503 35.0085 65.6104 34.9629C65.4704 34.9141 65.3695 34.8896 65.3076 34.8896C65.1188 34.8896 64.9495 34.9466 64.7998 35.0605C64.6533 35.1712 64.5247 35.2998 64.4141 35.4463L64.2285 35.6807L63.3301 35.2412L63.4668 35.0215C63.6849 34.6602 63.9453 34.3656 64.248 34.1377C64.5508 33.9098 64.9056 33.7959 65.3125 33.7959C65.4818 33.7959 65.682 33.8382 65.9131 33.9229C66.1475 34.0042 66.3997 34.1068 66.6699 34.2305C66.9434 34.3542 67.2249 34.4795 67.5146 34.6064C67.8076 34.7301 68.0973 34.8359 68.3838 34.9238C68.6735 35.0085 68.9502 35.0557 69.2139 35.0654V36.1055C69.0283 36.1283 68.8363 36.1738 68.6377 36.2422C68.4424 36.3073 68.221 36.4001 67.9736 36.5205C67.7295 36.6377 67.4447 36.7826 67.1191 36.9551C66.7025 37.1764 66.3118 37.3652 65.9473 37.5215C65.5859 37.6777 65.2165 37.7965 64.8389 37.8779C64.4613 37.9593 64.0381 38 63.5693 38H62.7539V36.8818ZM71.3623 31.2227V37.9951H70.3223V31.2227H71.3623ZM73.7256 36.8965C74.0804 36.8965 74.3913 36.8672 74.6582 36.8086C74.9284 36.75 75.1383 36.6589 75.2881 36.5352C75.4378 36.4082 75.5127 36.2406 75.5127 36.0322C75.5127 35.8271 75.4297 35.6123 75.2637 35.3877C75.1009 35.1631 74.8649 34.9352 74.5557 34.7041C74.2497 34.4697 73.877 34.2386 73.4375 34.0107L73.9209 33.0244C74.305 33.2165 74.6566 33.4215 74.9756 33.6396C75.2946 33.8577 75.5697 34.0905 75.8008 34.3379C76.0319 34.5853 76.2093 34.8473 76.333 35.124C76.46 35.3975 76.5234 35.6888 76.5234 35.998C76.5234 36.457 76.4193 36.8346 76.2109 37.1309C76.0059 37.4238 75.7015 37.6403 75.2979 37.7803C74.8942 37.9202 74.3945 37.9902 73.7988 37.9902C73.5645 37.9902 73.3415 37.9805 73.1299 37.9609C72.9215 37.9414 72.7214 37.9105 72.5293 37.8682V36.7549C72.7409 36.7972 72.9508 36.8314 73.1592 36.8574C73.3675 36.8835 73.5563 36.8965 73.7256 36.8965ZM80.0732 38C79.8844 38 79.7184 37.9772 79.5752 37.9316C79.4352 37.8828 79.3229 37.8275 79.2383 37.7656C79.1732 38.2246 79.0316 38.651 78.8135 39.0449C78.5954 39.4388 78.2894 39.7741 77.8955 40.0508C77.5049 40.3275 77.0117 40.5244 76.416 40.6416L76.0449 39.6357C76.5495 39.5251 76.9645 39.3672 77.29 39.1621C77.6188 38.9603 77.863 38.7064 78.0225 38.4004C78.182 38.0977 78.2617 37.738 78.2617 37.3213C78.2617 37.0348 78.2243 36.7256 78.1494 36.3936C78.0745 36.0615 77.9834 35.736 77.876 35.417L78.9062 35.0752L79.1797 36.1348C79.2448 36.3822 79.3441 36.5693 79.4775 36.6963C79.611 36.82 79.7917 36.8818 80.0195 36.8818H80.2051V38H80.0732ZM80.0098 36.8818H80.7373V38H80.0098V36.8818ZM81.4014 38H80.6152V36.8818H81.4014C81.6911 36.8818 81.888 36.7956 81.9922 36.623C82.0996 36.4505 82.1533 36.2308 82.1533 35.9639C82.1533 35.7458 82.1305 35.513 82.085 35.2656C82.0394 35.015 81.9922 34.7643 81.9434 34.5137L82.9785 34.25C83.0371 34.5299 83.0827 34.8066 83.1152 35.0801C83.151 35.3535 83.1689 35.6139 83.1689 35.8613C83.1689 36.2715 83.1136 36.6377 83.0029 36.96C82.8923 37.2822 82.7083 37.5361 82.4512 37.7217C82.194 37.9072 81.8441 38 81.4014 38ZM81.2744 39.7969L81.9873 40.5146L81.2744 41.2275L80.5615 40.5146L81.2744 39.7969ZM82.1191 38.5566L82.832 39.2744L82.1191 39.9873L81.4014 39.2744L82.1191 38.5566ZM80.4346 38.5566L81.1475 39.2744L80.4346 39.9873L79.7168 39.2744L80.4346 38.5566Z" fill="#747575"/>
<path d="M106.66 32.9609L107.412 33.708L106.66 34.4648L105.918 33.708L106.66 32.9609ZM105.029 32.9609L105.781 33.708L105.029 34.4648L104.282 33.708L105.029 32.9609ZM108.687 34.9092L109.678 34.7871L109.771 36.042C109.787 36.3252 109.865 36.5368 110.005 36.6768C110.145 36.8135 110.361 36.8818 110.654 36.8818H110.771V38H110.654C110.286 38 109.98 37.9316 109.736 37.7949C109.495 37.6549 109.297 37.4466 109.141 37.1699C108.861 37.4661 108.509 37.6794 108.086 37.8096C107.663 37.9365 107.091 38 106.372 38H105.557C104.964 38 104.434 37.9626 103.965 37.8877C103.499 37.8128 103.104 37.6875 102.778 37.5117C102.453 37.3359 102.204 37.0999 102.031 36.8037C101.862 36.5075 101.777 36.1348 101.777 35.6855C101.777 35.4316 101.805 35.1842 101.86 34.9434C101.919 34.6992 101.992 34.4697 102.08 34.2549L103.018 34.6064C102.965 34.7529 102.917 34.9173 102.871 35.0996C102.829 35.2786 102.808 35.4495 102.808 35.6123C102.808 35.8792 102.871 36.0957 102.998 36.2617C103.128 36.4277 103.312 36.5563 103.55 36.6475C103.791 36.7354 104.079 36.7972 104.414 36.833C104.753 36.8656 105.133 36.8818 105.557 36.8818H106.372C106.87 36.8818 107.295 36.8542 107.646 36.7988C107.998 36.7435 108.267 36.6426 108.452 36.4961C108.641 36.3496 108.735 36.1396 108.735 35.8662C108.735 35.7197 108.73 35.5602 108.721 35.3877C108.711 35.2119 108.7 35.0524 108.687 34.9092ZM110.791 38H110.576V36.8818H110.767C110.959 36.8818 111.125 36.82 111.265 36.6963C111.405 36.5693 111.533 36.4082 111.65 36.2129C111.771 36.0143 111.891 35.8044 112.012 35.583C112.135 35.3617 112.274 35.1517 112.427 34.9531C112.58 34.7546 112.76 34.5934 112.969 34.4697C113.18 34.346 113.434 34.2842 113.73 34.2842C114.085 34.2842 114.388 34.3574 114.639 34.5039C114.893 34.6504 115.098 34.8506 115.254 35.1045C115.413 35.3551 115.522 35.6383 115.581 35.9541C115.623 36.1657 115.684 36.3415 115.762 36.4814C115.84 36.6182 115.931 36.7191 116.035 36.7842C116.143 36.8493 116.257 36.8818 116.377 36.8818H116.504V38H116.372C116.164 38 115.959 37.9544 115.757 37.8633C115.558 37.7721 115.397 37.6452 115.273 37.4824C115.127 37.6842 114.953 37.8405 114.751 37.9512C114.549 38.0586 114.297 38.1123 113.994 38.1123C113.773 38.1123 113.563 38.0798 113.364 38.0146C113.169 37.9495 112.977 37.8568 112.788 37.7363C112.599 37.6159 112.407 37.471 112.212 37.3018C112.082 37.4417 111.953 37.5654 111.826 37.6729C111.702 37.777 111.559 37.8584 111.396 37.917C111.234 37.9723 111.032 38 110.791 38ZM113.76 35.3584C113.61 35.3584 113.473 35.4089 113.35 35.5098C113.229 35.6074 113.12 35.7327 113.022 35.8857C112.928 36.0387 112.845 36.1917 112.773 36.3447C112.878 36.4489 112.98 36.54 113.081 36.6182C113.182 36.6963 113.278 36.7614 113.369 36.8135C113.493 36.8851 113.607 36.9372 113.711 36.9697C113.818 37.0023 113.913 37.0186 113.994 37.0186C114.206 37.0186 114.36 36.9567 114.458 36.833C114.559 36.7093 114.609 36.5449 114.609 36.3398C114.609 36.0599 114.535 35.8271 114.385 35.6416C114.235 35.4528 114.027 35.3584 113.76 35.3584ZM116.299 36.8818H116.689V38H116.299V36.8818ZM118.066 38.708L118.818 39.4551L118.066 40.2119L117.324 39.4551L118.066 38.708ZM116.436 38.708L117.188 39.4551L116.436 40.2119L115.688 39.4551L116.436 38.708ZM118.052 34.9092L119.043 34.7871L119.131 36.042C119.141 36.2308 119.18 36.3887 119.248 36.5156C119.316 36.6393 119.414 36.7321 119.541 36.7939C119.671 36.8525 119.834 36.8818 120.029 36.8818H120.132V38H120.02C119.788 38 119.585 37.9723 119.409 37.917C119.233 37.8584 119.08 37.7786 118.95 37.6777C118.823 37.5736 118.713 37.4482 118.618 37.3018C118.436 37.5329 118.203 37.707 117.92 37.8242C117.64 37.9414 117.345 38 117.036 38H116.567V36.8818H117.036C117.427 36.8818 117.7 36.8037 117.856 36.6475C118.016 36.488 118.096 36.2292 118.096 35.8711C118.096 35.7018 118.091 35.5374 118.081 35.3779C118.075 35.2184 118.065 35.0622 118.052 34.9092ZM122.988 30.5049L123.74 31.252L122.988 32.0088L122.246 31.252L122.988 30.5049ZM121.357 30.5049L122.109 31.252L121.357 32.0088L120.61 31.252L121.357 30.5049ZM122.358 35.1729C122.498 35.1729 122.637 35.1631 122.773 35.1436C122.913 35.1208 123.052 35.0915 123.188 35.0557C123.169 34.9092 123.138 34.7578 123.096 34.6016C123.053 34.4421 122.996 34.2956 122.925 34.1621C122.856 34.0286 122.77 33.9212 122.666 33.8398C122.562 33.7552 122.437 33.7129 122.29 33.7129C122.118 33.7129 121.976 33.7666 121.865 33.874C121.758 33.9782 121.678 34.1051 121.626 34.2549C121.574 34.4046 121.548 34.5495 121.548 34.6895C121.548 34.8913 121.619 35.0231 121.763 35.085C121.909 35.1436 122.108 35.1729 122.358 35.1729ZM121.797 36.8818C122.126 36.8818 122.394 36.8639 122.603 36.8281C122.814 36.7923 122.97 36.7158 123.071 36.5986C123.175 36.4814 123.229 36.3008 123.232 36.0566C123.092 36.0924 122.948 36.1201 122.798 36.1396C122.648 36.1592 122.492 36.1689 122.329 36.1689C121.769 36.1689 121.336 36.0534 121.03 35.8223C120.728 35.5879 120.576 35.2249 120.576 34.7334C120.576 34.4046 120.645 34.0791 120.781 33.7568C120.918 33.4313 121.115 33.1628 121.372 32.9512C121.632 32.7363 121.942 32.6289 122.3 32.6289C122.638 32.6289 122.928 32.7152 123.169 32.8877C123.413 33.057 123.612 33.2848 123.765 33.5713C123.918 33.8577 124.032 34.18 124.106 34.5381C124.181 34.8962 124.219 35.264 124.219 35.6416C124.219 36.1364 124.172 36.5384 124.077 36.8477C123.983 37.1569 123.836 37.3962 123.638 37.5654C123.439 37.7314 123.184 37.8454 122.871 37.9072C122.559 37.9691 122.181 38 121.738 38H119.941V36.8818H121.797ZM130.684 40.5146C129.974 40.5146 129.401 40.3812 128.965 40.1143C128.532 39.8473 128.216 39.4925 128.018 39.0498C127.819 38.6071 127.72 38.1172 127.72 37.5801C127.72 37.3164 127.743 37.0267 127.788 36.7109C127.837 36.3919 127.926 36.0485 128.057 35.6807L129.009 36.0322C128.914 36.3382 128.846 36.623 128.804 36.8867C128.765 37.1504 128.745 37.3848 128.745 37.5898C128.745 37.9251 128.804 38.2295 128.921 38.5029C129.041 38.7796 129.242 38.9993 129.521 39.1621C129.805 39.3249 130.192 39.4062 130.684 39.4062C131.185 39.4062 131.602 39.3493 131.934 39.2354C132.269 39.1214 132.52 38.988 132.686 38.835C132.852 38.682 132.935 38.5518 132.935 38.4443C132.935 38.3044 132.873 38.1953 132.749 38.1172C132.625 38.0423 132.427 38.0049 132.153 38.0049H131.411C131.313 38.0049 131.248 37.974 131.216 37.9121C131.187 37.8503 131.157 37.7673 131.128 37.6631L130.962 37.0723C130.949 37.0202 130.949 36.9762 130.962 36.9404C130.975 36.9046 131.019 36.8867 131.094 36.8867H133.906V38.0049H133.813C133.849 38.0863 133.872 38.1595 133.882 38.2246C133.892 38.2897 133.896 38.3597 133.896 38.4346C133.896 38.6852 133.828 38.9342 133.691 39.1816C133.558 39.429 133.356 39.652 133.086 39.8506C132.816 40.0524 132.48 40.2135 132.08 40.334C131.68 40.4544 131.214 40.5146 130.684 40.5146ZM134.497 38H133.711V36.8818H134.497C134.787 36.8818 134.984 36.7956 135.088 36.623C135.195 36.4505 135.249 36.2308 135.249 35.9639C135.249 35.7458 135.226 35.513 135.181 35.2656C135.135 35.015 135.088 34.7643 135.039 34.5137L136.074 34.25C136.133 34.5299 136.178 34.8066 136.211 35.0801C136.247 35.3535 136.265 35.6139 136.265 35.8613C136.265 36.2715 136.209 36.6377 136.099 36.96C135.988 37.2822 135.804 37.5361 135.547 37.7217C135.29 37.9072 134.94 38 134.497 38ZM135.083 31.9746L135.864 32.7559L135.083 33.5371L134.302 32.7559L135.083 31.9746ZM137.432 31.2227H138.472V35.8027C138.472 36.2129 138.54 36.4961 138.677 36.6523C138.817 36.8053 139.053 36.8818 139.385 36.8818H139.507V38H139.385C138.714 38 138.221 37.8258 137.905 37.4775C137.59 37.126 137.432 36.584 137.432 35.8516V31.2227ZM142.72 38C142.365 38 142.082 37.9398 141.87 37.8193C141.659 37.6956 141.488 37.5264 141.357 37.3115C141.191 37.5296 140.988 37.6989 140.747 37.8193C140.506 37.9398 140.179 38 139.766 38H139.316V36.8818H139.775C140.036 36.8818 140.247 36.8558 140.41 36.8037C140.573 36.7516 140.692 36.6589 140.767 36.5254C140.845 36.3887 140.884 36.1934 140.884 35.9395C140.884 35.8841 140.882 35.8109 140.879 35.7197C140.876 35.6286 140.869 35.5244 140.859 35.4072C140.85 35.29 140.84 35.1663 140.83 35.0361L141.826 34.9141L141.914 36.0664C141.93 36.3138 142.005 36.5124 142.139 36.6621C142.272 36.8086 142.469 36.8818 142.729 36.8818C143.042 36.8818 143.252 36.8053 143.359 36.6523C143.47 36.4993 143.525 36.2617 143.525 35.9395C143.525 35.8874 143.524 35.8158 143.521 35.7246C143.517 35.6302 143.511 35.5244 143.501 35.4072C143.491 35.29 143.481 35.1663 143.472 35.0361L144.468 34.9141L144.556 36.0664C144.569 36.3008 144.629 36.4961 144.736 36.6523C144.844 36.8053 145.021 36.8818 145.269 36.8818C145.428 36.8818 145.552 36.8411 145.64 36.7598C145.731 36.6751 145.796 36.5628 145.835 36.4229C145.874 36.2829 145.894 36.1315 145.894 35.9688C145.894 35.7962 145.879 35.6204 145.85 35.4414C145.824 35.2624 145.793 35.0964 145.757 34.9434C145.724 34.7871 145.695 34.665 145.669 34.5771L146.694 34.2988C146.756 34.5365 146.807 34.7871 146.846 35.0508C146.885 35.3145 146.904 35.5781 146.904 35.8418C146.904 36.2161 146.852 36.5677 146.748 36.8965C146.647 37.2253 146.478 37.4906 146.24 37.6924C146.006 37.8942 145.685 37.9967 145.278 38C144.972 38 144.722 37.9382 144.526 37.8145C144.331 37.6875 144.17 37.5182 144.043 37.3066C143.867 37.5312 143.67 37.7038 143.452 37.8242C143.234 37.9414 142.99 38 142.72 38ZM146.802 40.6416L146.426 39.6357C146.93 39.5251 147.345 39.3672 147.671 39.1621C148 38.9603 148.244 38.7064 148.403 38.4004C148.563 38.0977 148.643 37.738 148.643 37.3213C148.643 37.0348 148.605 36.7256 148.53 36.3936C148.455 36.0615 148.364 35.736 148.257 35.417L149.287 35.0752C149.408 35.417 149.499 35.7686 149.561 36.1299C149.626 36.4912 149.658 36.8411 149.658 37.1797C149.658 37.7852 149.549 38.3255 149.331 38.8008C149.113 39.276 148.792 39.6715 148.369 39.9873C147.946 40.3031 147.424 40.5212 146.802 40.6416ZM158.062 35.7441L157.998 36.8037C157.874 36.7972 157.773 36.7939 157.695 36.7939C157.62 36.7939 157.546 36.7939 157.471 36.7939C156.93 36.7939 156.453 36.8346 156.04 36.916C155.63 36.9974 155.285 37.1195 155.005 37.2822C154.725 37.4417 154.513 37.6403 154.37 37.8779C154.23 38.1156 154.16 38.3923 154.16 38.708C154.16 39.0824 154.256 39.3851 154.448 39.6162C154.64 39.8473 154.891 40.015 155.2 40.1191C155.513 40.2266 155.848 40.2803 156.206 40.2803C156.577 40.2803 156.938 40.2412 157.29 40.1631C157.645 40.0882 157.974 39.9889 158.276 39.8652L158.569 40.8955C158.218 41.0485 157.843 41.1657 157.446 41.2471C157.049 41.3317 156.655 41.374 156.265 41.374C155.858 41.374 155.467 41.3236 155.093 41.2227C154.722 41.125 154.39 40.972 154.097 40.7637C153.804 40.5553 153.573 40.2835 153.403 39.9482C153.237 39.6162 153.154 39.2158 153.154 38.7471C153.154 38.3955 153.206 38.0651 153.311 37.7559C153.418 37.4466 153.587 37.1618 153.818 36.9014C154.053 36.6377 154.354 36.4033 154.722 36.1982C154.604 36.0648 154.507 35.9264 154.429 35.7832C154.354 35.6367 154.297 35.4854 154.258 35.3291C154.222 35.1729 154.204 35.0085 154.204 34.8359C154.204 34.4811 154.299 34.154 154.487 33.8545C154.679 33.5518 154.93 33.3092 155.239 33.127C155.552 32.9447 155.887 32.8535 156.245 32.8535C156.532 32.8535 156.823 32.9105 157.119 33.0244C157.419 33.1383 157.721 33.3011 158.027 33.5127L157.622 34.4209C157.388 34.2842 157.163 34.1751 156.948 34.0938C156.737 34.0091 156.525 33.9668 156.313 33.9668C156.034 33.9668 155.785 34.0514 155.566 34.2207C155.352 34.3867 155.244 34.6146 155.244 34.9043C155.244 35.0508 155.272 35.1826 155.327 35.2998C155.386 35.4137 155.456 35.5163 155.537 35.6074C155.618 35.6953 155.697 35.7718 155.771 35.8369C156.09 35.7979 156.37 35.7686 156.611 35.749C156.855 35.7262 157.104 35.7148 157.358 35.7148C157.482 35.7148 157.593 35.7181 157.69 35.7246C157.788 35.7279 157.912 35.7344 158.062 35.7441ZM161.523 36.7256C161.745 36.6507 161.937 36.5384 162.1 36.3887C162.262 36.2389 162.388 36.0339 162.476 35.7734C162.563 35.513 162.607 35.1794 162.607 34.7725V31.2227H163.647V35.0312C163.647 35.3926 163.672 35.7132 163.721 35.9932C163.773 36.2699 163.864 36.488 163.994 36.6475C164.124 36.8037 164.308 36.8818 164.546 36.8818H164.722V38H164.531C164.251 38 164.009 37.9544 163.804 37.8633C163.602 37.7721 163.434 37.6436 163.301 37.4775C163.167 37.3115 163.06 37.1162 162.979 36.8916C162.78 37.1357 162.531 37.3408 162.231 37.5068C161.932 37.6729 161.59 37.7965 161.206 37.8779C160.825 37.9593 160.41 38 159.961 38C159.811 38 159.658 37.9951 159.502 37.9854C159.349 37.9756 159.194 37.9642 159.038 37.9512V36.8867C159.24 36.8997 159.424 36.9111 159.59 36.9209C159.759 36.9307 159.915 36.9355 160.059 36.9355C160.16 36.9355 160.249 36.9355 160.327 36.9355C160.405 36.9323 160.472 36.9274 160.527 36.9209C160.527 36.9209 160.509 36.8232 160.474 36.6279C160.438 36.4294 160.382 36.1592 160.308 35.8174C160.233 35.4723 160.135 35.0817 160.015 34.6455C159.897 34.2061 159.757 33.7454 159.595 33.2637C159.432 32.7819 159.246 32.3034 159.038 31.8281L159.99 31.4033C160.199 31.8981 160.384 32.3978 160.547 32.9023C160.713 33.4069 160.856 33.887 160.977 34.3428C161.1 34.7985 161.203 35.2054 161.284 35.5635C161.366 35.9215 161.426 36.2048 161.465 36.4131C161.504 36.6214 161.523 36.7256 161.523 36.7256ZM168.789 34.9531C168.597 34.9531 168.402 34.9987 168.203 35.0898C168.008 35.181 167.809 35.3112 167.607 35.4805C167.409 35.6497 167.21 35.8532 167.012 36.0908C166.816 36.3285 166.624 36.5921 166.436 36.8818H167.075C167.482 36.8818 167.847 36.8639 168.169 36.8281C168.494 36.7923 168.771 36.7354 168.999 36.6572C169.227 36.5758 169.401 36.4684 169.521 36.335C169.645 36.2015 169.707 36.0371 169.707 35.8418C169.707 35.5814 169.621 35.3682 169.448 35.2021C169.279 35.0361 169.059 34.9531 168.789 34.9531ZM165.303 36.8818C165.358 36.7907 165.415 36.7028 165.474 36.6182C165.532 36.5303 165.589 36.4424 165.645 36.3545V31.2227H166.685V34.9775C166.851 34.7952 167.015 34.6341 167.178 34.4941C167.344 34.3542 167.511 34.237 167.681 34.1426C167.85 34.0482 168.022 33.9766 168.198 33.9277C168.377 33.8789 168.56 33.8545 168.745 33.8545C169.142 33.8545 169.491 33.9359 169.79 34.0986C170.093 34.2614 170.329 34.4876 170.498 34.7773C170.667 35.0638 170.752 35.3958 170.752 35.7734C170.752 36.1738 170.667 36.5156 170.498 36.7988C170.329 37.0788 170.083 37.3083 169.761 37.4873C169.438 37.6631 169.049 37.7933 168.594 37.8779C168.141 37.9593 167.63 38 167.061 38H164.531V36.8818H165.303ZM172.954 31.2227V37.9951H171.914V31.2227H172.954Z" fill="#747575"/>
<path d="M205.337 38H204.097C203.507 38 202.979 37.9626 202.51 37.8877C202.044 37.8128 201.649 37.6875 201.323 37.5117C200.998 37.3359 200.75 37.0999 200.581 36.8037C200.412 36.5075 200.327 36.1348 200.327 35.6855C200.327 35.4316 200.355 35.1826 200.41 34.9385C200.469 34.6943 200.542 34.4648 200.63 34.25L201.567 34.6064C201.515 34.7497 201.466 34.9124 201.421 35.0947C201.379 35.2738 201.357 35.4447 201.357 35.6074C201.357 35.8743 201.421 36.0924 201.548 36.2617C201.675 36.4277 201.857 36.5563 202.095 36.6475C202.336 36.7354 202.624 36.7972 202.959 36.833C203.298 36.8656 203.677 36.8818 204.097 36.8818H205.332C205.723 36.8818 206.042 36.8623 206.289 36.8232C206.536 36.7809 206.719 36.7077 206.836 36.6035C206.953 36.4993 207.012 36.3529 207.012 36.1641C207.012 36.0306 206.961 35.8939 206.86 35.7539C206.759 35.6107 206.624 35.4674 206.455 35.3242C206.286 35.1777 206.099 35.0345 205.894 34.8945C205.692 34.7513 205.488 34.6097 205.283 34.4697C205.078 34.3298 204.889 34.193 204.717 34.0596C204.6 33.9684 204.51 33.8561 204.448 33.7227C204.386 33.5859 204.355 33.446 204.355 33.3027C204.355 33.1465 204.395 33.0016 204.473 32.8682C204.554 32.7347 204.678 32.6354 204.844 32.5703L208.467 31.0957V32.1943L205.586 33.3613C205.824 33.5208 206.047 33.6722 206.255 33.8154C206.463 33.9587 206.657 34.1035 206.836 34.25C207.015 34.3932 207.178 34.5413 207.324 34.6943C207.474 34.8473 207.607 35.0133 207.725 35.1924C207.845 35.3714 207.949 35.5667 208.037 35.7783C208.145 36.0387 208.25 36.2503 208.354 36.4131C208.462 36.5758 208.59 36.6947 208.74 36.7695C208.89 36.8444 209.082 36.8818 209.316 36.8818H209.448L209.443 38H209.312C208.937 38 208.62 37.9365 208.359 37.8096C208.102 37.6794 207.878 37.4678 207.686 37.1748C207.539 37.3669 207.37 37.5247 207.178 37.6484C206.986 37.7689 206.743 37.8584 206.45 37.917C206.16 37.9723 205.789 38 205.337 38ZM213.701 31.3398L214.414 32.0527L213.701 32.7656L212.988 32.0527L213.701 31.3398ZM214.546 32.5801L215.259 33.293L214.546 34.0059L213.828 33.293L214.546 32.5801ZM212.861 32.5801L213.574 33.293L212.861 34.0059L212.144 33.293L212.861 32.5801ZM212.656 38C212.301 38 212.018 37.9398 211.807 37.8193C211.595 37.6956 211.424 37.5264 211.294 37.3115C211.128 37.5296 210.924 37.6989 210.684 37.8193C210.443 37.9398 210.116 38 209.702 38H209.253V36.8818H209.712C209.972 36.8818 210.184 36.8558 210.347 36.8037C210.509 36.7516 210.628 36.6589 210.703 36.5254C210.781 36.3887 210.82 36.1934 210.82 35.9395C210.82 35.8841 210.819 35.8109 210.815 35.7197C210.812 35.6286 210.806 35.5244 210.796 35.4072C210.786 35.29 210.776 35.1663 210.767 35.0361L211.763 34.9141L211.851 36.0664C211.867 36.3138 211.942 36.5124 212.075 36.6621C212.209 36.8086 212.406 36.8818 212.666 36.8818C212.979 36.8818 213.188 36.8053 213.296 36.6523C213.407 36.4993 213.462 36.2617 213.462 35.9395C213.462 35.8874 213.46 35.8158 213.457 35.7246C213.454 35.6302 213.447 35.5244 213.438 35.4072C213.428 35.29 213.418 35.1663 213.408 35.0361L214.404 34.9141L214.492 36.0664C214.505 36.3008 214.565 36.4961 214.673 36.6523C214.78 36.8053 214.958 36.8818 215.205 36.8818C215.365 36.8818 215.488 36.8411 215.576 36.7598C215.667 36.6751 215.732 36.5628 215.771 36.4229C215.811 36.2829 215.83 36.1315 215.83 35.9688C215.83 35.7962 215.815 35.6204 215.786 35.4414C215.76 35.2624 215.729 35.0964 215.693 34.9434C215.661 34.7871 215.632 34.665 215.605 34.5771L216.631 34.2988C216.693 34.5365 216.743 34.7871 216.782 35.0508C216.821 35.3145 216.841 35.5781 216.841 35.8418C216.841 36.2161 216.789 36.5677 216.685 36.8965C216.584 37.2253 216.414 37.4906 216.177 37.6924C215.942 37.8942 215.622 37.9967 215.215 38C214.909 38 214.658 37.9382 214.463 37.8145C214.268 37.6875 214.106 37.5182 213.979 37.3066C213.804 37.5312 213.607 37.7038 213.389 37.8242C213.171 37.9414 212.926 38 212.656 38ZM218.579 32.6875L219.36 33.4688L218.579 34.25L217.798 33.4688L218.579 32.6875ZM220.391 38C220.202 38 220.036 37.9772 219.893 37.9316C219.753 37.8828 219.64 37.8275 219.556 37.7656C219.491 38.2246 219.349 38.651 219.131 39.0449C218.913 39.4388 218.607 39.7741 218.213 40.0508C217.822 40.3275 217.329 40.5244 216.733 40.6416L216.362 39.6357C216.867 39.5251 217.282 39.3672 217.607 39.1621C217.936 38.9603 218.18 38.7064 218.34 38.4004C218.499 38.0977 218.579 37.738 218.579 37.3213C218.579 37.0348 218.542 36.7256 218.467 36.3936C218.392 36.0615 218.301 35.736 218.193 35.417L219.224 35.0752L219.497 36.1348C219.562 36.3822 219.661 36.5693 219.795 36.6963C219.928 36.82 220.109 36.8818 220.337 36.8818H220.522V38H220.391ZM220.327 36.8818H221.055V38H220.327V36.8818ZM221.719 38H220.933V36.8818H221.719C222.008 36.8818 222.205 36.7956 222.31 36.623C222.417 36.4505 222.471 36.2308 222.471 35.9639C222.471 35.7458 222.448 35.513 222.402 35.2656C222.357 35.015 222.31 34.7643 222.261 34.5137L223.296 34.25C223.354 34.5299 223.4 34.8066 223.433 35.0801C223.468 35.3535 223.486 35.6139 223.486 35.8613C223.486 36.2715 223.431 36.6377 223.32 36.96C223.21 37.2822 223.026 37.5361 222.769 37.7217C222.511 37.9072 222.161 38 221.719 38ZM221.592 39.7969L222.305 40.5146L221.592 41.2275L220.879 40.5146L221.592 39.7969ZM222.437 38.5566L223.149 39.2744L222.437 39.9873L221.719 39.2744L222.437 38.5566ZM220.752 38.5566L221.465 39.2744L220.752 39.9873L220.034 39.2744L220.752 38.5566ZM229.785 36.0762C229.785 35.9948 229.766 35.8874 229.727 35.7539C229.691 35.6172 229.65 35.4967 229.604 35.3926L228.696 33.3613L229.634 32.9121L230.786 35.6025C230.913 35.8988 231.025 36.1413 231.123 36.3301C231.221 36.5189 231.322 36.6589 231.426 36.75C231.53 36.8379 231.655 36.8818 231.802 36.8818H232.007V38H231.802C231.551 38 231.341 37.9691 231.172 37.9072C231.003 37.8454 230.856 37.7559 230.732 37.6387C230.609 37.5182 230.488 37.3734 230.371 37.2041C230.215 37.3799 230.033 37.5264 229.824 37.6436C229.619 37.7607 229.383 37.8486 229.116 37.9072C228.853 37.9658 228.55 37.9951 228.208 37.9951C227.957 37.9951 227.736 37.9854 227.544 37.9658C227.355 37.943 227.17 37.9105 226.987 37.8682V36.7549C227.186 36.8005 227.383 36.8346 227.578 36.8574C227.773 36.8802 227.959 36.8916 228.135 36.8916C228.464 36.8916 228.75 36.8639 228.994 36.8086C229.242 36.7533 229.435 36.6654 229.575 36.5449C229.715 36.4245 229.785 36.2682 229.785 36.0762ZM231.802 36.8818H232.192V38H231.802V36.8818ZM233.569 38.708L234.321 39.4551L233.569 40.2119L232.827 39.4551L233.569 38.708ZM231.938 38.708L232.69 39.4551L231.938 40.2119L231.191 39.4551L231.938 38.708ZM233.555 34.9092L234.546 34.7871L234.634 36.042C234.644 36.2308 234.683 36.3887 234.751 36.5156C234.819 36.6393 234.917 36.7321 235.044 36.7939C235.174 36.8525 235.337 36.8818 235.532 36.8818H235.635V38H235.522C235.291 38 235.088 37.9723 234.912 37.917C234.736 37.8584 234.583 37.7786 234.453 37.6777C234.326 37.5736 234.215 37.4482 234.121 37.3018C233.939 37.5329 233.706 37.707 233.423 37.8242C233.143 37.9414 232.848 38 232.539 38H232.07V36.8818H232.539C232.93 36.8818 233.203 36.8037 233.359 36.6475C233.519 36.488 233.599 36.2292 233.599 35.8711C233.599 35.7018 233.594 35.5374 233.584 35.3779C233.577 35.2184 233.568 35.0622 233.555 34.9092ZM235.444 36.8818H236.182V38H235.444V36.8818ZM236.836 38H236.05V36.8818H236.836C237.126 36.8818 237.323 36.7956 237.427 36.623C237.534 36.4505 237.588 36.2308 237.588 35.9639C237.588 35.7458 237.565 35.513 237.52 35.2656C237.474 35.015 237.427 34.7643 237.378 34.5137L238.413 34.25C238.472 34.5299 238.517 34.8066 238.55 35.0801C238.586 35.3535 238.604 35.6139 238.604 35.8613C238.604 36.2715 238.548 36.6377 238.438 36.96C238.327 37.2822 238.143 37.5361 237.886 37.7217C237.629 37.9072 237.279 38 236.836 38ZM237.544 38.708L238.296 39.4551L237.544 40.2119L236.802 39.4551L237.544 38.708ZM235.913 38.708L236.665 39.4551L235.913 40.2119L235.166 39.4551L235.913 38.708ZM239.771 31.2227H240.811V35.8027C240.811 36.2129 240.879 36.4961 241.016 36.6523C241.156 36.8053 241.392 36.8818 241.724 36.8818H241.846V38H241.724C241.053 38 240.56 37.8258 240.244 37.4775C239.928 37.126 239.771 36.584 239.771 35.8516V31.2227ZM241.655 36.8818H242.227V38H241.655V36.8818ZM244.053 32.0088L244.805 32.7559L244.053 33.5127L243.311 32.7559L244.053 32.0088ZM242.422 32.0088L243.174 32.7559L242.422 33.5127L241.675 32.7559L242.422 32.0088ZM242.9 38H242.114V36.8818H242.9C243.19 36.8818 243.387 36.7956 243.491 36.623C243.599 36.4505 243.652 36.2308 243.652 35.9639C243.652 35.7458 243.63 35.513 243.584 35.2656C243.538 35.015 243.491 34.7643 243.442 34.5137L244.478 34.25C244.536 34.5299 244.582 34.8066 244.614 35.0801C244.65 35.3535 244.668 35.6139 244.668 35.8613C244.668 36.2715 244.613 36.6377 244.502 36.96C244.391 37.2822 244.207 37.5361 243.95 37.7217C243.693 37.9072 243.343 38 242.9 38Z" fill="#747575"/>
<path d="M284.238 32.9609L284.99 33.708L284.238 34.4648L283.496 33.708L284.238 32.9609ZM282.607 32.9609L283.359 33.708L282.607 34.4648L281.86 33.708L282.607 32.9609ZM286.265 34.9092L287.256 34.7871L287.349 36.042C287.365 36.3252 287.443 36.5368 287.583 36.6768C287.723 36.8135 287.939 36.8818 288.232 36.8818H288.35V38H288.232C287.865 38 287.559 37.9316 287.314 37.7949C287.074 37.6549 286.875 37.4466 286.719 37.1699C286.439 37.4661 286.087 37.6794 285.664 37.8096C285.241 37.9365 284.67 38 283.95 38H283.135C282.542 38 282.012 37.9626 281.543 37.8877C281.077 37.8128 280.682 37.6875 280.356 37.5117C280.031 37.3359 279.782 37.0999 279.609 36.8037C279.44 36.5075 279.355 36.1348 279.355 35.6855C279.355 35.4316 279.383 35.1842 279.438 34.9434C279.497 34.6992 279.57 34.4697 279.658 34.2549L280.596 34.6064C280.544 34.7529 280.495 34.9173 280.449 35.0996C280.407 35.2786 280.386 35.4495 280.386 35.6123C280.386 35.8792 280.449 36.0957 280.576 36.2617C280.706 36.4277 280.89 36.5563 281.128 36.6475C281.369 36.7354 281.657 36.7972 281.992 36.833C282.331 36.8656 282.712 36.8818 283.135 36.8818H283.95C284.448 36.8818 284.873 36.8542 285.225 36.7988C285.576 36.7435 285.845 36.6426 286.03 36.4961C286.219 36.3496 286.313 36.1396 286.313 35.8662C286.313 35.7197 286.309 35.5602 286.299 35.3877C286.289 35.2119 286.278 35.0524 286.265 34.9092ZM291.558 38C291.203 38 290.92 37.9398 290.708 37.8193C290.496 37.6956 290.326 37.5264 290.195 37.3115C290.029 37.5296 289.826 37.6989 289.585 37.8193C289.344 37.9398 289.017 38 288.604 38H288.154V36.8818H288.613C288.874 36.8818 289.085 36.8558 289.248 36.8037C289.411 36.7516 289.53 36.6589 289.604 36.5254C289.683 36.3887 289.722 36.1934 289.722 35.9395C289.722 35.8841 289.72 35.8109 289.717 35.7197C289.714 35.6286 289.707 35.5244 289.697 35.4072C289.688 35.29 289.678 35.1663 289.668 35.0361L290.664 34.9141L290.752 36.0664C290.768 36.3138 290.843 36.5124 290.977 36.6621C291.11 36.8086 291.307 36.8818 291.567 36.8818C291.88 36.8818 292.09 36.8053 292.197 36.6523C292.308 36.4993 292.363 36.2617 292.363 35.9395C292.363 35.8874 292.362 35.8158 292.358 35.7246C292.355 35.6302 292.349 35.5244 292.339 35.4072C292.329 35.29 292.319 35.1663 292.31 35.0361L293.306 34.9141L293.394 36.0664C293.407 36.3008 293.467 36.4961 293.574 36.6523C293.682 36.8053 293.859 36.8818 294.106 36.8818C294.266 36.8818 294.39 36.8411 294.478 36.7598C294.569 36.6751 294.634 36.5628 294.673 36.4229C294.712 36.2829 294.731 36.1315 294.731 35.9688C294.731 35.7962 294.717 35.6204 294.688 35.4414C294.661 35.2624 294.631 35.0964 294.595 34.9434C294.562 34.7871 294.533 34.665 294.507 34.5771L295.532 34.2988C295.594 34.5365 295.645 34.7871 295.684 35.0508C295.723 35.3145 295.742 35.5781 295.742 35.8418C295.742 36.2161 295.69 36.5677 295.586 36.8965C295.485 37.2253 295.316 37.4906 295.078 37.6924C294.844 37.8942 294.523 37.9967 294.116 38C293.81 38 293.56 37.9382 293.364 37.8145C293.169 37.6875 293.008 37.5182 292.881 37.3066C292.705 37.5312 292.508 37.7038 292.29 37.8242C292.072 37.9414 291.828 38 291.558 38ZM297.944 31.2227V37.9951H296.904V31.2227H297.944ZM300.845 34.2256C301.125 34.2256 301.377 34.2891 301.602 34.416C301.829 34.5397 302.026 34.7188 302.192 34.9531C302.362 35.1875 302.493 35.4674 302.588 35.793C302.682 36.1185 302.738 36.4814 302.754 36.8818H303.247V38H302.666C302.572 38.4264 302.402 38.8154 302.158 39.167C301.917 39.5186 301.58 39.8197 301.147 40.0703C300.715 40.321 300.166 40.5098 299.502 40.6367L299.126 39.6309C299.582 39.5397 299.985 39.4193 300.337 39.2695C300.688 39.1198 300.978 38.9391 301.206 38.7275C301.434 38.516 301.589 38.2734 301.67 38H301.035C300.4 38 299.92 37.8698 299.595 37.6094C299.272 37.349 299.111 36.9437 299.111 36.3936C299.111 36.1527 299.147 35.9053 299.219 35.6514C299.294 35.3975 299.404 35.1631 299.551 34.9482C299.697 34.7334 299.878 34.5592 300.093 34.4258C300.311 34.2923 300.562 34.2256 300.845 34.2256ZM301.006 36.8818H301.763C301.746 36.6442 301.715 36.431 301.67 36.2422C301.628 36.0501 301.569 35.8857 301.494 35.749C301.419 35.6123 301.326 35.5081 301.216 35.4365C301.108 35.3649 300.981 35.3291 300.835 35.3291C300.649 35.3291 300.503 35.3877 300.396 35.5049C300.291 35.6188 300.218 35.7555 300.176 35.915C300.133 36.0745 300.112 36.2194 300.112 36.3496C300.112 36.5547 300.187 36.6947 300.337 36.7695C300.487 36.8444 300.71 36.8818 301.006 36.8818ZM306.099 31.5254L306.88 32.3066L306.099 33.0879L305.317 32.3066L306.099 31.5254ZM303.057 36.8818H303.887C304.238 36.8818 304.564 36.8525 304.863 36.7939C305.166 36.7354 305.462 36.654 305.752 36.5498C306.045 36.4424 306.351 36.3138 306.67 36.1641C306.992 36.0111 307.35 35.8418 307.744 35.6562C307.503 35.5684 307.269 35.4805 307.041 35.3926C306.816 35.3014 306.606 35.2184 306.411 35.1436C306.219 35.0687 306.053 35.0085 305.913 34.9629C305.773 34.9141 305.672 34.8896 305.61 34.8896C305.422 34.8896 305.252 34.9466 305.103 35.0605C304.956 35.1712 304.827 35.2998 304.717 35.4463L304.531 35.6807L303.633 35.2412L303.77 35.0215C303.988 34.6602 304.248 34.3656 304.551 34.1377C304.854 33.9098 305.208 33.7959 305.615 33.7959C305.785 33.7959 305.985 33.8382 306.216 33.9229C306.45 34.0042 306.702 34.1068 306.973 34.2305C307.246 34.3542 307.528 34.4795 307.817 34.6064C308.11 34.7301 308.4 34.8359 308.687 34.9238C308.976 35.0085 309.253 35.0557 309.517 35.0654V36.1055C309.331 36.1283 309.139 36.1738 308.94 36.2422C308.745 36.3073 308.524 36.4001 308.276 36.5205C308.032 36.6377 307.747 36.7826 307.422 36.9551C307.005 37.1764 306.615 37.3652 306.25 37.5215C305.889 37.6777 305.519 37.7965 305.142 37.8779C304.764 37.9593 304.341 38 303.872 38H303.057V36.8818ZM309.36 40.6416L308.984 39.6357C309.489 39.5251 309.904 39.3672 310.229 39.1621C310.558 38.9603 310.802 38.7064 310.962 38.4004C311.121 38.0977 311.201 37.738 311.201 37.3213C311.201 37.0348 311.164 36.7256 311.089 36.3936C311.014 36.0615 310.923 35.736 310.815 35.417L311.846 35.0752C311.966 35.417 312.057 35.7686 312.119 36.1299C312.184 36.4912 312.217 36.8411 312.217 37.1797C312.217 37.7852 312.108 38.3255 311.89 38.8008C311.672 39.276 311.351 39.6715 310.928 39.9873C310.505 40.3031 309.982 40.5212 309.36 40.6416ZM314.312 36.8965C314.666 36.8965 314.977 36.8672 315.244 36.8086C315.514 36.75 315.724 36.6589 315.874 36.5352C316.024 36.4082 316.099 36.2406 316.099 36.0322C316.099 35.8271 316.016 35.6123 315.85 35.3877C315.687 35.1631 315.451 34.9352 315.142 34.7041C314.836 34.4697 314.463 34.2386 314.023 34.0107L314.507 33.0244C314.891 33.2165 315.243 33.4215 315.562 33.6396C315.881 33.8577 316.156 34.0905 316.387 34.3379C316.618 34.5853 316.795 34.8473 316.919 35.124C317.046 35.3975 317.109 35.6888 317.109 35.998C317.109 36.457 317.005 36.8346 316.797 37.1309C316.592 37.4238 316.287 37.6403 315.884 37.7803C315.48 37.9202 314.98 37.9902 314.385 37.9902C314.15 37.9902 313.927 37.9805 313.716 37.9609C313.507 37.9414 313.307 37.9105 313.115 37.8682V36.7549C313.327 36.7972 313.537 36.8314 313.745 36.8574C313.953 36.8835 314.142 36.8965 314.312 36.8965ZM325.488 32.9609L326.24 33.708L325.488 34.4648L324.746 33.708L325.488 32.9609ZM323.857 32.9609L324.609 33.708L323.857 34.4648L323.11 33.708L323.857 32.9609ZM327.515 34.9092L328.506 34.7871L328.599 36.042C328.615 36.3252 328.693 36.5368 328.833 36.6768C328.973 36.8135 329.189 36.8818 329.482 36.8818H329.6V38H329.482C329.115 38 328.809 37.9316 328.564 37.7949C328.324 37.6549 328.125 37.4466 327.969 37.1699C327.689 37.4661 327.337 37.6794 326.914 37.8096C326.491 37.9365 325.92 38 325.2 38H324.385C323.792 38 323.262 37.9626 322.793 37.8877C322.327 37.8128 321.932 37.6875 321.606 37.5117C321.281 37.3359 321.032 37.0999 320.859 36.8037C320.69 36.5075 320.605 36.1348 320.605 35.6855C320.605 35.4316 320.633 35.1842 320.688 34.9434C320.747 34.6992 320.82 34.4697 320.908 34.2549L321.846 34.6064C321.794 34.7529 321.745 34.9173 321.699 35.0996C321.657 35.2786 321.636 35.4495 321.636 35.6123C321.636 35.8792 321.699 36.0957 321.826 36.2617C321.956 36.4277 322.14 36.5563 322.378 36.6475C322.619 36.7354 322.907 36.7972 323.242 36.833C323.581 36.8656 323.962 36.8818 324.385 36.8818H325.2C325.698 36.8818 326.123 36.8542 326.475 36.7988C326.826 36.7435 327.095 36.6426 327.28 36.4961C327.469 36.3496 327.563 36.1396 327.563 35.8662C327.563 35.7197 327.559 35.5602 327.549 35.3877C327.539 35.2119 327.528 35.0524 327.515 34.9092ZM329.399 36.8818H329.634V38H329.399V36.8818ZM330.405 38.6738L331.187 39.4551L330.405 40.2363L329.624 39.4551L330.405 38.6738ZM330.986 34.9092L331.978 34.7871L332.065 36.042C332.075 36.2308 332.114 36.3887 332.183 36.5156C332.251 36.6393 332.349 36.7321 332.476 36.7939C332.606 36.8525 332.769 36.8818 332.964 36.8818H333.066V38H332.954C332.723 38 332.52 37.9723 332.344 37.917C332.168 37.8584 332.015 37.7786 331.885 37.6777C331.758 37.5736 331.647 37.4482 331.553 37.3018C331.37 37.5329 331.138 37.707 330.854 37.8242C330.575 37.9414 330.28 38 329.971 38H329.502V36.8818H329.971C330.361 36.8818 330.635 36.8037 330.791 36.6475C330.951 36.488 331.03 36.2292 331.03 35.8711C331.03 35.7018 331.025 35.5374 331.016 35.3779C331.009 35.2184 330.999 35.0622 330.986 34.9092ZM332.866 36.8818H333.218V38H332.866V36.8818ZM334.209 30.9199L334.922 31.6328L334.209 32.3506L333.496 31.6328L334.209 30.9199ZM335.054 32.1602L335.767 32.873L335.054 33.5908L334.336 32.873L335.054 32.1602ZM333.369 32.1602L334.082 32.873L333.369 33.5908L332.651 32.873L333.369 32.1602ZM333.872 38H333.086V36.8818H333.872C334.162 36.8818 334.359 36.7956 334.463 36.623C334.57 36.4505 334.624 36.2308 334.624 35.9639C334.624 35.7458 334.601 35.513 334.556 35.2656C334.51 35.015 334.463 34.7643 334.414 34.5137L335.449 34.25C335.508 34.5299 335.553 34.8066 335.586 35.0801C335.622 35.3535 335.64 35.6139 335.64 35.8613C335.64 36.2715 335.584 36.6377 335.474 36.96C335.363 37.2822 335.179 37.5361 334.922 37.7217C334.665 37.9072 334.315 38 333.872 38Z" fill="url(#paint2_linear_4379_41450)"/>
<defs>
<linearGradient id="paint0_linear_4379_41450" x1="0" y1="0" x2="22.6249" y2="3.08378" gradientUnits="userSpaceOnUse">
<stop stop-color="#FF7733"/>
<stop offset="0.5" stop-color="#FF5722"/>
<stop offset="1" stop-color="#E64917"/>
</linearGradient>
<linearGradient id="paint1_linear_4379_41450" x1="298.5" y1="3" x2="316.925" y2="3.44647" gradientUnits="userSpaceOnUse">
<stop stop-color="#FF7733"/>
<stop offset="0.5" stop-color="#FF5722"/>
<stop offset="1" stop-color="#E64917"/>
</linearGradient>
<linearGradient id="paint2_linear_4379_41450" x1="271" y1="28" x2="344.866" y2="36.1662" gradientUnits="userSpaceOnUse">
<stop stop-color="#FF7733"/>
<stop offset="0.5" stop-color="#FF5722"/>
<stop offset="1" stop-color="#E64917"/>
</linearGradient>
<clipPath id="clip0_4379_41450">
<rect width="45" height="4" fill="white" transform="translate(242.5 10)"/>
</clipPath>
</defs>
</svg>
