<svg width="24" height="24" viewBox="0 0 24 24" fill="none" xmlns="http://www.w3.org/2000/svg">
<path fill-rule="evenodd" clip-rule="evenodd" d="M18.8476 7.76492L18.7876 7.89492L17.9736 9.52092C17.5616 9.42092 17.1926 9.36992 16.8666 9.36992C16.5546 9.36992 16.1856 9.40792 15.7576 9.48592L16.9996 6.99992L4.99958 12.9999L9.99958 13.9999L10.9996 18.9999L12.2366 16.5229H14.4726L12.7886 19.8939C11.9616 21.5479 9.55858 21.2779 9.07658 19.5529L9.03858 19.3929L8.29958 15.6999L4.60758 14.9609C2.84958 14.6099 2.44758 12.3519 3.82558 11.3779L3.96058 11.2909L4.10558 11.2109L16.1056 5.21092C17.7376 4.39492 19.4636 5.99692 18.8986 7.63292L18.8486 7.76492H18.8476ZM16.2466 18.7039C16.5636 18.7039 16.8346 18.8139 17.0586 19.0329C17.2826 19.2529 17.3946 19.5209 17.3946 19.8379C17.3946 20.1549 17.2826 20.4279 17.0586 20.6569C16.9544 20.7672 16.8284 20.8547 16.6886 20.9137C16.5488 20.9728 16.3983 21.0021 16.2466 20.9999C15.9196 20.9999 15.6446 20.8879 15.4206 20.6639C15.3111 20.5565 15.2249 20.4278 15.1671 20.2857C15.1093 20.1436 15.0812 19.9912 15.0846 19.8379C15.0846 19.5209 15.1966 19.2519 15.4206 19.0329C15.6446 18.8129 15.9206 18.7039 16.2466 18.7039ZM16.4426 11.2839C17.3196 11.2839 18.0266 11.5359 18.5626 12.0399C19.0996 12.5439 19.3686 13.2019 19.3686 14.0139C19.3686 14.3869 19.3026 14.7259 19.1726 15.0289C19.0426 15.3319 18.9086 15.5559 18.7726 15.7009L18.6866 15.7909L18.4766 15.9889L18.1606 16.2629L17.9156 16.4569L17.8556 16.5129L17.8036 16.5669L17.5996 16.7569L17.5416 16.8209L17.4296 16.9749C17.3852 17.0322 17.3498 17.096 17.3246 17.1639C17.3034 17.2285 17.2848 17.2939 17.2686 17.3599C17.2501 17.4332 17.2407 17.5084 17.2406 17.5839V17.9479H15.1826V17.4579C15.1826 17.1219 15.2496 16.8119 15.3856 16.5269C15.5206 16.2419 15.6536 16.0389 15.7846 15.9179L16.0806 15.6539L16.4006 15.3789L16.7966 15.0529L16.8486 15.0079C16.9041 14.9632 16.9535 14.9114 16.9956 14.8539L17.0236 14.8119L17.1076 14.6999C17.1525 14.6467 17.1859 14.5847 17.2056 14.5179L17.2546 14.3289C17.2733 14.2581 17.2828 14.1852 17.2826 14.1119C17.2826 13.8319 17.2006 13.6059 17.0376 13.4329C16.8736 13.2599 16.6576 13.1739 16.3866 13.1739C16.2583 13.1697 16.1307 13.1931 16.0123 13.2426C15.8939 13.2921 15.7876 13.3666 15.7006 13.4609C15.5213 13.6574 15.4259 13.9161 15.4346 14.1819V14.4199H13.3626V14.1819C13.3626 13.3319 13.6496 12.6369 14.2226 12.0959C14.7976 11.5549 15.5366 11.2839 16.4426 11.2839Z" fill="black"/>
</svg>
