<svg width="24" height="24" viewBox="0 0 24 24" fill="none" xmlns="http://www.w3.org/2000/svg">
<path d="M19.7781 4.22152L17.6568 6.34284C14.5314 3.21743 9.46852 3.21743 6.34311 6.34284C6.18984 6.49611 6.04425 6.6541 5.90631 6.81632C4.71748 8.21252 4 10.0224 4 11.9999C4 16.4182 7.58172 19.9999 12 19.9999C16.4183 19.9999 20 16.4182 20 11.9999H18C18 15.3136 15.3137 17.9999 12 17.9999C8.68629 17.9999 6 15.3136 6 11.9999C6 11.3845 6.09263 10.7908 6.26472 10.2319H6.2724C6.39686 9.8127 6.57138 9.40409 6.79385 9.01524C7.34122 8.06252 8.14258 7.27429 9.10553 6.74296C10.9112 5.7491 13.1229 5.75459 14.9241 6.75942C14.9495 6.77363 14.9748 6.78802 15 6.80259C15.4444 7.05914 15.8628 7.37723 16.2426 7.75705L14.1213 9.87837H19.7781V4.22152Z" fill="black"/>
</svg>
