<svg width="24" height="24" viewBox="0 0 24 24" fill="none" xmlns="http://www.w3.org/2000/svg">
<path fill-rule="evenodd" clip-rule="evenodd" d="M19 4.99989C20.5977 4.99989 21.9037 6.24881 21.9949 7.82362L22 7.99989V14.9999C22 16.5976 20.7511 17.9036 19.1763 17.9948L19 17.9999L16.793 17.9994L17.9142 19.1212L16.5 20.5354L12.9645 16.9999L16.5 13.4644L17.9142 14.8786L16.792 15.9994L19 15.9999C19.5128 15.9999 19.9355 15.6138 19.9933 15.1165L20 14.9999V7.99989C20 7.48705 19.614 7.06438 19.1166 7.00662L19 6.99989H13V4.99989H19ZM7.46447 2.46436L11 5.99989L7.46447 9.53542L6.05025 8.12121L7.17 6.99936L5 6.99989C4.48716 6.99989 4.06449 7.38593 4.00673 7.88327L4 7.99989V14.9999C4 15.5127 4.38604 15.9354 4.88338 15.9932L5 15.9999H11V17.9999H5C3.40232 17.9999 2.09634 16.751 2.00509 15.1762L2 14.9999V7.99989C2 6.40221 3.24892 5.09623 4.82373 5.00498L5 4.99989L7.172 4.99936L6.05025 3.87857L7.46447 2.46436Z" fill="black"/>
</svg>
