<svg width="24" height="24" viewBox="0 0 24 24" fill="none" xmlns="http://www.w3.org/2000/svg">
<path fill-rule="evenodd" clip-rule="evenodd" d="M17.743 14.996L19.157 16.41L14.5 21.067L11.964 18.531L13.379 17.117L14.499 18.238L17.743 14.996ZM17.449 3L21.089 7.092L20.999 7.17L21 13H19V9H5.00003V19H10V21H5.00003C4.49546 21.0002 4.00947 20.8096 3.63949 20.4665C3.2695 20.1234 3.04288 19.6532 3.00503 19.15L3.00003 19V7.171L2.91003 7.091L6.55003 3H17.45H17.449ZM16.551 5H7.44703L5.66703 7H18.33L16.551 5Z" fill="black"/>
</svg>
