<svg width="24" height="24" viewBox="0 0 24 24" fill="none" xmlns="http://www.w3.org/2000/svg">
<path fill-rule="evenodd" clip-rule="evenodd" d="M16.7928 18.9998L20.6177 22.2595L21.9581 20.7751L2.04496 3.08496L0.70459 4.56935L4.53509 7.93121L4.46153 8.21321L4.42238 8.33219L4.38679 8.40734C3.65444 8.2945 2.92398 8.16527 2.19594 8.01966L1.80371 9.98082C2.23036 10.0662 2.65781 10.1461 3.08597 10.2206L2.988 10.3605C2.34454 11.3381 1.99983 12.4846 1.99983 13.6593V21.0002H4.99071C4.99143 19.8959 5.88678 19.0007 6.99117 19.0002L16.7928 18.9998ZM8.99983 13.0002H5.99983V15.0002H8.99983V13.0002Z" fill="black"/>
<path d="M21.9998 13.7193V18.3138L17.9998 14.7019V13.0002H16.1153L11.6845 8.9993C13.6259 9.01149 15.5677 8.9058 17.4998 8.68223L17.0401 6.76487C16.9416 6.35338 16.6028 6.05379 16.1989 6.00672L16.0872 6.00024H8.36326L6.51251 4.32905C6.92531 4.11778 7.39086 4.00024 7.87835 4.00024H16.1805C17.5625 4.00024 18.7657 4.94432 19.0944 6.28664L19.6129 8.40734C20.3452 8.2945 21.0757 8.16527 21.8037 8.01966L22.1959 9.98082C21.7567 10.0687 21.3167 10.1508 20.8759 10.2272C21.6066 11.2433 21.9998 12.4647 21.9998 13.7193Z" fill="black"/>
</svg>
