<svg width="24" height="24" viewBox="0 0 24 24" fill="none" xmlns="http://www.w3.org/2000/svg">
<path fill-rule="evenodd" clip-rule="evenodd" d="M3.5152 3.1001L21.8992 21.4851L20.4852 22.8991L16.5852 18.9991L7.9922 19.0001V20.0001H5.9922V19.0001C5.99206 18.4954 6.18276 18.0092 6.52606 17.6392C6.86936 17.2692 7.33987 17.0427 7.8432 17.0051L7.9932 17.0001H14.5872L8.4552 10.8701C7.40495 10.7979 6.35713 10.6939 5.3132 10.5581L4.7712 11.2991C4.32185 11.9142 4.05748 12.6449 4.0092 13.4051L4.0002 13.6601V20.0001H2.0002V13.6591C2.00009 12.4865 2.34358 11.3396 2.9882 10.3601L3.0862 10.2201L2.5262 10.1201L1.8042 9.9801L2.1962 8.0201C2.9242 8.1651 3.6562 8.2941 4.3882 8.4071L4.4232 8.3321L4.4622 8.2131L4.7382 7.1531L2.1002 4.5151L3.5152 3.1001ZM16.1802 4.0001C16.8211 4.00014 17.4451 4.2054 17.9608 4.58582C18.4766 4.96624 18.8569 5.50182 19.0462 6.1141L19.0942 6.2861L19.6122 8.4071C20.1037 8.33109 20.5941 8.24774 21.0832 8.1571L21.8032 8.0191L22.1952 9.9811L21.5352 10.1081L20.8752 10.2271L20.9322 10.3031C21.5724 11.2281 21.9397 12.3144 21.9922 13.4381L21.9992 13.7191V18.7581L19.9992 16.7581V13.7191C19.9991 12.9227 19.7613 12.1445 19.3162 11.4841L19.1772 11.2901L18.6242 10.5661C17.1503 10.7555 15.6689 10.8816 14.1842 10.9441L12.2302 8.9901C14.0302 8.9811 15.8302 8.8761 17.6202 8.6731L17.1522 6.7631C17.1038 6.5643 16.9956 6.38512 16.8422 6.24976C16.6887 6.11439 16.4975 6.02935 16.2942 6.0061L16.1812 6.0001H9.2402L7.2992 4.0561C7.4312 4.0301 7.5662 4.0131 7.7022 4.0061L7.8802 4.0001H16.1822H16.1802ZM9.0002 13.0001V15.0001H6.0002V13.0001H9.0002ZM18.0002 13.0001V14.7581L16.2422 13.0001H18.0002Z" fill="black"/>
</svg>
