<svg width="24" height="24" viewBox="0 0 24 24" fill="none" xmlns="http://www.w3.org/2000/svg">
<path d="M11.9415 17.8252C11.6564 17.8252 11.4081 17.7192 11.1965 17.5071C10.9849 17.295 10.8791 17.0435 10.8791 16.7524C10.8791 16.4613 10.9852 16.213 11.1972 16.0075C11.4093 15.8019 11.6602 15.6991 11.9499 15.6991C12.2397 15.6991 12.488 15.8018 12.6949 16.007C12.9018 16.2123 13.0052 16.4636 13.0052 16.7609C13.0052 17.0473 12.9009 17.2962 12.6924 17.5078C12.4838 17.7194 12.2335 17.8252 11.9415 17.8252ZM12.0053 22.3535C13.442 22.3535 14.7879 22.0835 16.043 21.5436C17.298 21.0037 18.3958 20.2634 19.3365 19.3228C20.2771 18.3821 21.0174 17.2843 21.5573 16.0293C22.0972 14.7744 22.3672 13.4278 22.3672 11.9897C22.3672 10.5515 22.0972 9.20432 21.5573 7.94804C21.0174 6.69175 20.2779 5.59721 19.3387 4.66441C18.3995 3.73161 17.3021 2.99315 16.0464 2.44901C14.7908 1.90488 13.4435 1.63281 12.0045 1.63281C10.5656 1.63281 9.21746 1.90451 7.96006 2.44791C6.70266 2.99131 5.60791 3.72879 4.67581 4.66034C3.74371 5.59189 3.0058 6.68732 2.46209 7.94664C1.91837 9.20595 1.64651 10.5549 1.64651 11.9936C1.64651 13.4316 1.91858 14.778 2.46271 16.0329C3.00685 17.2878 3.74531 18.3835 4.67811 19.3199C5.61091 20.2563 6.70613 20.996 7.96376 21.539C9.22141 22.082 10.5686 22.3535 12.0053 22.3535ZM11.9726 7.72631C11.5261 7.72631 11.1322 7.86601 10.791 8.14541C10.4498 8.42481 10.2791 8.777 10.2791 9.20196C10.2791 9.60363 10.3978 9.95624 10.635 10.2598C10.8722 10.5633 11.1409 10.8391 11.4411 11.0872C11.8244 11.4132 12.1601 11.7744 12.4482 12.1707C12.7362 12.567 12.8802 13.0069 12.8802 13.4904C12.8802 13.6977 12.8003 13.8637 12.6405 13.9883C12.4808 14.1129 12.2943 14.1752 12.0813 14.1752C11.853 14.1752 11.6615 14.0991 11.5067 13.947C11.3519 13.7948 11.2416 13.6093 11.1759 13.3904C11.1164 13.0687 10.9904 12.7778 10.7977 12.5177C10.605 12.2576 10.3741 12.0224 10.1049 11.8121C9.70149 11.4846 9.37116 11.0906 9.11391 10.6301C8.85666 10.1696 8.72804 9.68285 8.72804 9.16984C8.72804 8.31835 9.03583 7.60167 9.65141 7.01979C10.267 6.4379 10.9972 6.14696 11.8421 6.14696C12.4701 6.14696 13.0651 6.27902 13.6273 6.54314C14.1894 6.80727 14.6596 7.19043 15.0378 7.69261C15.1639 7.87811 15.2207 8.08069 15.2083 8.30034C15.1958 8.51999 15.1001 8.69785 14.9212 8.83391C14.7027 8.97666 14.475 9.02069 14.2382 8.96599C14.0014 8.91127 13.8056 8.78283 13.6509 8.58066C13.4572 8.31996 13.2132 8.1124 12.9187 7.95796C12.6243 7.80353 12.3089 7.72631 11.9726 7.72631Z" fill="black"/>
</svg>
