<svg width="24" height="24" viewBox="0 0 24 24" fill="none" xmlns="http://www.w3.org/2000/svg">
<path fill-rule="evenodd" clip-rule="evenodd" d="M14.8282 9.87848L13.414 11.2927C12.2843 10.163 10.4777 10.1226 9.29961 11.1716L9.17137 11.2927L5.28228 15.1818C4.30597 16.1581 4.30597 17.741 5.28228 18.7173C6.21954 19.6546 7.71584 19.6921 8.69782 18.8298L8.81782 18.7173L10.5856 16.9495L11.9998 18.3638L10.232 20.1315C8.47467 21.8889 5.62543 21.8889 3.86807 20.1315C2.16092 18.4244 2.11214 15.6868 3.72174 13.9208L3.86807 13.7676L7.75716 9.87848C9.65839 7.97724 12.7098 7.92721 14.6716 9.72838L14.8282 9.87848ZM20.1315 3.86807C21.8387 5.57522 21.8874 8.31275 20.2779 10.0788L20.1315 10.232L16.2424 14.1211C14.3412 16.0224 11.2898 16.0724 9.328 14.2712L9.17137 14.1211L10.5856 12.7069C11.7153 13.8366 13.5219 13.877 14.7 12.8279L14.8282 12.7069L18.7173 8.81782C19.6936 7.84151 19.6936 6.25859 18.7173 5.28228C17.7801 4.34502 16.2837 4.30753 15.3018 5.16981L15.1818 5.28228L13.414 7.05005L11.9998 5.63584L13.7676 3.86807C15.5249 2.11071 18.3742 2.11071 20.1315 3.86807Z" fill="black"/>
</svg>
