<svg width="24" height="24" viewBox="0 0 24 24" fill="none" xmlns="http://www.w3.org/2000/svg">
<path fill-rule="evenodd" clip-rule="evenodd" d="M10.312 19.822C10.752 19.916 11.202 19.974 11.658 19.992L12.083 20L12.103 22H12.001C11.286 22 10.581 21.925 9.89098 21.777L10.311 19.822H10.312ZM15.532 19.18L16.417 20.974C15.7501 21.3028 15.0483 21.5557 14.325 21.728L13.862 19.783C14.441 19.644 15.001 19.443 15.532 19.18ZM7.09298 18.319C7.56222 18.684 8.07069 18.9956 8.60898 19.248L7.75898 21.058C7.08653 20.7429 6.45128 20.3538 5.86498 19.898L7.09298 18.318V18.319ZM12 2C12.132 2 12.263 2.003 12.394 2.008L12 2C12.167 2 12.334 2.004 12.5 2.012L12.686 2.023L12.931 2.043L13.117 2.062L13.351 2.091L13.553 2.12L13.797 2.161L13.995 2.199L14.208 2.245C14.8919 2.39881 15.5577 2.62474 16.194 2.919L16.344 2.991C16.605 3.116 16.859 3.253 17.106 3.401L17.512 3.655L17.678 3.767L17.898 3.924L18.217 4.167C18.687 4.541 19.124 4.957 19.52 5.409L19.835 5.786C19.909 5.879 19.982 5.974 20.053 6.07L19.81 5.754C20.1694 6.20271 20.4896 6.68147 20.767 7.185L20.813 7.271C21.198 7.986 21.497 8.752 21.7 9.558L21.74 9.728C21.77 9.855 21.797 9.983 21.822 10.111L21.736 9.707C21.774 9.871 21.808 10.035 21.838 10.201L21.901 10.588L21.957 11.071L21.971 11.235L21.988 11.504C22.0243 12.2501 21.9781 12.998 21.85 13.734L21.767 14.154C21.727 14.335 21.683 14.514 21.633 14.692L21.519 15.072L21.389 15.449L21.207 15.909C20.8577 16.7312 20.3996 17.5028 19.845 18.203L19.874 18.166C19.776 18.29 19.675 18.412 19.572 18.532L19.45 18.672L19.277 18.859C19.153 18.991 19.025 19.119 18.894 19.244L18.521 19.581L18.274 19.787L17.019 18.23L17.383 17.918L17.539 17.773C18.1948 17.1431 18.7391 16.4067 19.149 15.595L19.241 15.407L19.356 15.15L19.476 14.853L19.61 14.475L19.653 14.337L19.707 14.155C19.747 14.013 19.782 13.87 19.814 13.725L19.87 13.445C19.934 13.091 19.975 12.731 19.992 12.366L20 11.93L19.99 11.581L19.957 11.165L19.937 10.992L19.914 10.821L19.884 10.631L19.849 10.444C19.7135 9.75732 19.4879 9.09155 19.178 8.464L19.038 8.192L19.015 8.151C18.8349 7.823 18.6317 7.5082 18.407 7.209L18.201 6.945C17.826 6.485 17.401 6.068 16.934 5.702L16.703 5.528L16.425 5.334L16.13 5.147L15.75 4.931L15.656 4.882L15.75 4.932C15.1075 4.59007 14.4211 4.33805 13.71 4.183L13.399 4.122L13.153 4.082L12.85 4.045L12.69 4.029L12.503 4.016L12.313 4.006L12 4C11.194 4 10.407 4.12 9.65998 4.347L9.38898 4.436L9.11898 4.534L8.81998 4.657C8.00233 5.01068 7.24987 5.49913 6.59398 6.102L6.42698 6.261L6.21698 6.471C6.01631 6.68175 5.82704 6.90307 5.64998 7.134L4.06298 5.916C4.27093 5.64522 4.49256 5.38522 4.72698 5.137L4.99698 4.862L5.28498 4.589L5.60598 4.311C6.06663 3.92726 6.56096 3.58588 7.08298 3.291L7.47698 3.079L7.55598 3.039C7.64298 2.996 7.73098 2.954 7.81998 2.913L7.47698 3.079C7.61698 3.009 7.75698 2.941 7.89798 2.877L8.35798 2.684L8.75998 2.537L8.92598 2.482L9.15898 2.41L9.31898 2.364L9.55998 2.3C10.137 2.156 10.73 2.062 11.334 2.022L11.79 2.002L12 2ZM4.83798 15.568C5.10356 16.1 5.42756 16.6007 5.80398 17.061L4.25598 18.327C3.78534 17.7521 3.38018 17.1266 3.04798 16.462L4.83798 15.568ZM3.99998 12.152C4.01198 12.752 4.08898 13.342 4.22998 13.916L2.28698 14.393C2.1102 13.6716 2.01428 12.9327 2.00098 12.19L4.00098 12.152H3.99998ZM13 8V12H16V14H11V8H13ZM2.90698 7.832L4.72498 8.667C4.47707 9.20675 4.29057 9.77263 4.16898 10.354L2.21198 9.944C2.36398 9.214 2.59798 8.507 2.90698 7.832Z" fill="black"/>
</svg>
