<svg width="24" height="24" viewBox="0 0 24 24" fill="none" xmlns="http://www.w3.org/2000/svg">
<path fill-rule="evenodd" clip-rule="evenodd" d="M13.4199 1.57993L22.4299 10.5899C23.1999 11.3899 23.1899 12.6499 22.3999 13.4099L13.4099 22.3999C13.0199 22.7899 12.5099 22.9799 11.9999 22.9799C11.4899 22.9799 10.9799 22.7899 10.5899 22.3999L1.58988 13.3999C0.809883 12.6199 0.809883 11.3599 1.58988 10.5799L10.5899 1.57993C11.3499 0.819928 12.6699 0.829928 13.4199 1.57993ZM8 14.9999V10.9999C8 10.4499 8.45 9.99994 9 9.99994H14V7.49994L17.5 10.9999L14 14.4999V11.9999H10V14.9999H8Z" fill="black"/>
</svg>
