<svg width="24" height="24" viewBox="0 0 24 24" fill="none" xmlns="http://www.w3.org/2000/svg">
<path fill-rule="evenodd" clip-rule="evenodd" d="M12.0074 1.90576L20.8128 5.82236C21.4867 6.12208 21.9368 6.76586 21.9939 7.49279L22 7.64974V18.0001C22 19.0544 21.1841 19.9182 20.1493 19.9946L20 20.0001H4C2.94564 20.0001 2.08183 19.1842 2.00549 18.1493L2 18.0001V7.65016C2 6.91228 2.40569 6.23903 3.04724 5.89165L3.18826 5.8223L12.0074 1.90576ZM12.006 4.09308L4 7.65016V18.0001H20V7.64974L12.006 4.09308ZM17.5563 9.15069L18.4395 10.9451L11.9982 14.1156L5.60713 10.9436L6.49626 9.15215L12.001 11.8841L17.5563 9.15069Z" fill="black"/>
</svg>
