<svg width="24" height="24" viewBox="0 0 24 24" fill="none" xmlns="http://www.w3.org/2000/svg">
<path fill-rule="evenodd" clip-rule="evenodd" d="M14.649 11.85L16.099 13.3C16.2324 13.0167 16.3324 12.7292 16.399 12.4375C16.4657 12.1459 16.499 11.8334 16.499 11.5C16.499 10.25 16.0615 9.18755 15.1865 8.31255C14.3115 7.43755 13.249 7.00005 11.999 7.00005C11.6657 7.00005 11.3532 7.03338 11.0615 7.10005C10.7699 7.16672 10.4824 7.26672 10.199 7.40005L11.649 8.85005C12.599 8.70005 13.374 8.96672 13.974 9.65005C14.574 10.3334 14.799 11.0667 14.649 11.85ZM17.849 15.05L19.299 16.4501C20.1324 15.8167 20.8615 15.0792 21.4865 14.2375C22.1115 13.3959 22.6157 12.4834 22.999 11.5C22.1157 9.28338 20.6907 7.47922 18.724 6.08755C16.7574 4.69588 14.5157 4.00005 11.999 4.00005C11.2157 4.00005 10.4657 4.07088 9.74902 4.21255C9.03235 4.35422 8.33235 4.56672 7.64902 4.85005L9.19902 6.40005C9.64902 6.26672 10.1074 6.16672 10.574 6.10005C11.0407 6.03338 11.5157 6.00005 11.999 6.00005C13.9157 6.00005 15.6532 6.49588 17.2115 7.48755C18.7699 8.47922 19.9657 9.81672 20.799 11.5C20.449 12.2334 20.0282 12.8876 19.5365 13.4626C19.0449 14.0375 18.4824 14.5667 17.849 15.05ZM9.39814 18.7317L1.35487 10.6884C1.22726 10.9528 1.10865 11.2234 0.999023 11.5C1.88236 13.7167 3.30736 15.5209 5.27402 16.9125C6.53557 17.8053 7.91028 18.4116 9.39814 18.7317Z" fill="black"/>
<path d="M1.39902 4.20005L2.79902 2.80005L21.199 21.2001L19.799 22.6L1.39902 4.20005Z" fill="black"/>
<path d="M2.14048 9.30645L3.37814 7.74411L14.396 18.762C13.56 18.9332 12.6838 19.0094 11.8331 18.999L2.14048 9.30645Z" fill="black"/>
</svg>
