<svg width="24" height="24" viewBox="0 0 24 24" fill="none" xmlns="http://www.w3.org/2000/svg">
<path d="M4.17505 14.0028C4.17505 12.4766 4.5337 11.094 5.251 9.85493C5.9683 8.61585 6.77971 7.53809 7.68522 6.62164C8.59076 5.7052 9.45582 4.97091 10.2804 4.41876C11.105 3.86663 11.6198 3.51683 11.825 3.36938V6.30009C11.825 6.9704 12.0506 7.50048 12.5018 7.89034C12.953 8.28019 13.4589 8.47511 14.0194 8.47511C14.2757 8.47511 14.5205 8.42971 14.7538 8.33891C14.987 8.24809 15.2076 8.1076 15.4154 7.91743L16.0308 7.24821C17.191 7.98923 18.1135 8.95397 18.7981 10.1424C19.4827 11.3309 19.825 12.6128 19.825 13.9881C19.825 15.5448 19.4199 16.9376 18.6096 18.1664C17.7993 19.3953 16.7461 20.3187 15.4499 20.9366C15.8032 20.5469 16.0791 20.1053 16.2774 19.6117C16.4758 19.118 16.575 18.5994 16.575 18.0556C16.575 17.4609 16.4606 16.8871 16.2318 16.3342C16.003 15.7812 15.6745 15.2878 15.2461 14.854L12 11.6982L8.7789 14.854C8.33917 15.277 8.0036 15.7608 7.7722 16.3054C7.54078 16.8499 7.42507 17.4315 7.42507 18.0501C7.42507 18.5975 7.52426 19.118 7.72262 19.6117C7.92099 20.1053 8.19682 20.5469 8.5501 20.9366C7.25393 20.3187 6.20072 19.3941 5.39045 18.1628C4.58018 16.9315 4.17505 15.5449 4.17505 14.0028Z" fill="black"/>
<path d="M12 14.6963L13.776 16.453C14.0102 16.6895 14.1894 16.9497 14.3137 17.2338C14.4379 17.5178 14.5 17.8245 14.5 18.1539C14.5 18.8304 14.2567 19.4076 13.77 19.8855C13.2833 20.3634 12.6933 20.6023 12 20.6023C11.3067 20.6023 10.7167 20.3634 10.23 19.8855C9.74333 19.4076 9.5 18.8304 9.5 18.1539C9.5 17.8261 9.56022 17.5203 9.68067 17.2365C9.8011 16.9527 9.98077 16.6941 10.2197 16.4608L12 14.6963Z" fill="black"/>
</svg>
