<svg width="24" height="24" viewBox="0 0 24 24" fill="none" xmlns="http://www.w3.org/2000/svg">
<path fill-rule="evenodd" clip-rule="evenodd" d="M14.7373 2.5L15.12 4.628L15.2392 4.68169C15.5602 4.8305 15.8566 4.98617 16.1328 5.15198L16.4025 5.3213L16.561 5.431L16.8455 5.30393L18.5692 4.58918L21.5327 9.44852L20.2459 10.5561L19.846 10.905L19.8724 11.1049C19.8912 11.264 19.9054 11.4152 19.9149 11.5627L19.9256 11.782L19.9292 11.999C19.9292 12.2361 19.9163 12.4712 19.8899 12.7296L19.8589 12.9968L19.845 13.092L20.1074 13.3234L21.5379 14.5427L18.5752 19.3983L16.8533 18.6982L16.571 18.572C16.2799 18.7834 15.977 18.9727 15.6631 19.1387L15.3456 19.2969L15.115 19.397L14.7377 21.5H9.14378L8.77004 19.415L8.64234 19.363C8.36337 19.2398 8.09009 19.0941 7.8193 18.925L7.54923 18.7479L7.30604 18.574L6.95694 18.7292L5.30082 19.3878L2.34448 14.5427L3.64478 13.4358L3.96904 13.151L3.93648 12.8926C3.91774 12.7334 3.90353 12.5821 3.89401 12.4346L3.88326 12.2156L3.87964 11.999C3.87964 11.7634 3.8926 11.5289 3.919 11.2707L3.9499 11.0036L3.97104 10.848L3.81947 10.7145L2.34518 9.45516L5.30719 4.60075L7.02952 5.301L7.31104 5.426C7.6002 5.21849 7.90417 5.02936 8.21939 4.86256L8.53822 4.70335L8.76604 4.602L9.14413 2.5H14.7373ZM12 8C14.2092 8 16 9.79086 16 12C16 14.2091 14.2092 16 12 16C9.7909 16 8.00004 14.2091 8.00004 12C8.00004 9.79086 9.7909 8 12 8Z" fill="black"/>
</svg>
