<svg width="24" height="24" viewBox="0 0 24 24" fill="none" xmlns="http://www.w3.org/2000/svg">
<path fill-rule="evenodd" clip-rule="evenodd" d="M20.8389 5.63609C22.9271 7.72431 22.9851 11.0739 21.0129 13.2322L20.8389 13.4143L12 22.2531L3.16121 13.4142C1.01332 11.2664 1.01332 7.78394 3.16121 5.63606C5.24943 3.54784 8.59906 3.48983 10.7574 5.46204L10.9394 5.63606L11.9993 6.69515L13.0607 5.63609C15.2086 3.48821 18.691 3.48821 20.8389 5.63609ZM14.6245 6.90909L14.4749 7.0503L11.9993 9.52515L9.52517 7.05027C8.25283 5.77793 6.24462 5.68997 4.87053 6.78638L4.71487 6.91815L4.57542 7.05027C3.2574 8.36829 3.21033 10.476 4.4342 11.8504L4.57542 12L11.9993 19.4251L19.4247 12.0001C20.697 10.7277 20.785 8.7195 19.6886 7.34541L19.5568 7.18976L19.4247 7.0503C18.1555 5.7811 16.154 5.69044 14.7802 6.77833L14.6245 6.90909Z" fill="black"/>
</svg>
