<svg width="24" height="24" viewBox="0 0 24 24" fill="none" xmlns="http://www.w3.org/2000/svg">
<path fill-rule="evenodd" clip-rule="evenodd" d="M2.00293 16C2.00293 9.37258 7.37551 4 14.0029 4C18.4212 4 22.0029 7.58172 22.0029 12C22.0029 16.4183 18.4212 20 14.0029 20H4.00293C2.89836 20 2.00293 19.1046 2.00293 18V16ZM14.0029 18H4.00293V16C4.00293 15.6625 4.01965 15.3289 4.0523 15H10.456C12.4135 15 14.0004 13.4131 14.0004 11.4556C14.0004 10.1347 13.2658 8.9234 12.0945 8.31275L9.60666 7.01569C10.9335 6.36521 12.4256 6 14.0029 6C17.3166 6 20.0029 8.68629 20.0029 12C20.0029 15.3137 17.3166 18 14.0029 18ZM4.46073 13H10.456C11.3089 13 12.0004 12.3086 12.0004 11.4556C12.0004 10.8801 11.6803 10.3523 11.17 10.0862L7.66926 8.2611C6.18107 9.48051 5.05098 11.1207 4.46073 13Z" fill="black"/>
</svg>
