<svg width="24" height="24" viewBox="0 0 24 24" fill="none" xmlns="http://www.w3.org/2000/svg">
<path fill-rule="evenodd" clip-rule="evenodd" d="M22.5148 9.14284L12.0076 2.83398L1.48584 9.14252L2.51429 10.8578L2.99984 10.566L3.00007 18.0002L3.00555 18.1494C3.0819 19.1843 3.9457 20.0002 5.00007 20.0002H19.0001L19.1493 19.9947C20.1842 19.9183 21.0001 19.0545 21.0001 18.0002L20.9998 10.566L21.4853 10.8575L22.5148 9.14284ZM4.99984 9.36698L12.0061 5.16617L18.9998 9.36498L19.0001 18.0002H5.00007L4.99984 9.36698Z" fill="black"/>
<path d="M9.50007 14.0002C9.50007 13.4479 9.94778 13.0002 10.5001 13.0002H13.5001C14.0524 13.0002 14.5001 13.4479 14.5001 14.0002V20.0002H9.50007V14.0002Z" fill="black"/>
</svg>
