<svg width="24" height="24" viewBox="0 0 24 24" fill="none" xmlns="http://www.w3.org/2000/svg">
<path d="M9.42593 13.867L10.3819 10.6871L7.75801 8.76914H10.9738L11.9999 5.38326L13.0009 8.76914H16.2417L13.6428 10.6871L14.5738 13.867L11.9999 11.893L9.42593 13.867ZM5.76671 23.4561V15.5229C4.99677 14.7088 4.44034 13.8063 4.09741 12.8155C3.75447 11.8247 3.58301 10.8466 3.58301 9.88109C3.58301 7.50716 4.39282 5.51187 6.01243 3.89521C7.63203 2.27855 9.629 1.47021 12.0033 1.47021C14.3777 1.47021 16.3745 2.27855 17.9938 3.89521C19.613 5.51187 20.4227 7.50716 20.4227 9.88109C20.4227 10.8466 20.2534 11.8247 19.9148 12.8155C19.5762 13.8063 19.0156 14.7088 18.233 15.5229V23.4561L11.9999 21.342L5.76671 23.4561ZM12.001 16.3653C13.8137 16.3653 15.3473 15.7382 16.602 14.484C17.8567 13.2298 18.4841 11.6958 18.4841 9.88184C18.4841 8.06794 17.8564 6.53463 16.6009 5.28191C15.3454 4.0292 13.8113 3.40284 11.9987 3.40284C10.1861 3.40284 8.6524 4.03028 7.39768 5.28516C6.14297 6.54005 5.51561 8.07336 5.51561 9.88509C5.51561 11.6998 6.14336 13.2335 7.39886 14.4863C8.65436 15.739 10.1884 16.3653 12.001 16.3653ZM7.56181 20.9148L11.9999 19.5479L16.4379 20.9148V16.9539C15.7546 17.4293 15.0282 17.773 14.2587 17.9851C13.4892 18.1972 12.7363 18.3032 11.9999 18.3032C11.2635 18.3032 10.5105 18.1972 9.74103 17.9851C8.97155 17.773 8.24514 17.4293 7.56181 16.9539V20.9148Z" fill="black"/>
</svg>
