<svg width="24" height="24" viewBox="0 0 24 24" fill="none" xmlns="http://www.w3.org/2000/svg">
<path d="M3.38736 7.87347L1.93664 7.21785C1.84932 7.18053 1.80566 7.10789 1.80566 6.99992C1.80566 6.89195 1.84933 6.81931 1.93666 6.782L3.38736 6.1126L4.05079 4.66187C4.08906 4.57854 4.15777 4.53687 4.25694 4.53687C4.35609 4.53687 4.43266 4.57854 4.48664 4.66187L5.14824 6.1126L6.58176 6.782C6.67306 6.81931 6.71871 6.89195 6.71871 6.99992C6.71871 7.10789 6.67306 7.18053 6.58176 7.21785L5.14824 7.87347L4.48664 9.307C4.43266 9.41098 4.35609 9.46297 4.25694 9.46297C4.15777 9.46297 4.08906 9.41098 4.05079 9.307L3.38736 7.87347ZM17.7649 4.75807L17.0388 4.42002C16.9309 4.38115 16.8769 4.31018 16.8769 4.2071C16.8769 4.104 16.9309 4.02135 17.0388 3.95917L17.7649 3.64015L18.1089 2.88905C18.1436 2.80571 18.2131 2.76405 18.3177 2.76405C18.4222 2.76405 18.5063 2.80571 18.5698 2.88905L18.8889 3.63405L19.6339 3.95917C19.7213 4.02109 19.7649 4.10333 19.7649 4.2059C19.7649 4.30846 19.7213 4.37984 19.6339 4.42002L18.8828 4.75807L18.5698 5.48417C18.5079 5.58815 18.4246 5.64015 18.3201 5.64015C18.2155 5.64015 18.1451 5.58815 18.1089 5.48417L17.7649 4.75807ZM20.1948 9.5559L19.4437 9.21785C19.3524 9.179 19.3068 9.10802 19.3068 9.00492C19.3068 8.90182 19.3524 8.81918 19.4437 8.757L20.1887 8.43187L20.5019 7.68687C20.5499 7.60354 20.6291 7.56187 20.7395 7.56187C20.8498 7.56187 20.9262 7.60354 20.9687 7.68687L21.3127 8.43797L22.0388 8.757C22.1222 8.81893 22.1638 8.90117 22.1638 9.00372C22.1638 9.10629 22.1222 9.17766 22.0388 9.21785L21.3127 9.5559L20.9687 10.282C20.9268 10.386 20.8512 10.438 20.742 10.438C20.6328 10.438 20.5527 10.386 20.5019 10.282L20.1948 9.5559ZM12.0039 14.8064C11.1775 14.8064 10.4897 14.5124 9.94046 13.9243C9.39118 13.3363 9.11654 12.6254 9.11654 11.7918V5.52765C9.11654 4.73066 9.39413 4.05496 9.94931 3.50055C10.5045 2.94615 11.1869 2.66895 11.9966 2.66895C12.8063 2.66895 13.4909 2.94615 14.0505 3.50055C14.6101 4.05496 14.8899 4.73066 14.8899 5.52765V11.7918C14.8899 12.6254 14.6155 13.3363 14.0667 13.9243C13.5178 14.5124 12.8302 14.8064 12.0039 14.8064ZM11.9982 12.8738C12.2789 12.8738 12.5079 12.7684 12.6853 12.5575C12.8626 12.3466 12.9513 12.0914 12.9513 11.7918V5.52765C12.9513 5.26705 12.8581 5.04755 12.6718 4.86915C12.4855 4.69075 12.2623 4.60155 12.0022 4.60155C11.7422 4.60155 11.5183 4.69075 11.3307 4.86915C11.143 5.04755 11.0492 5.26705 11.0492 5.52765V11.7918C11.0492 12.0914 11.1372 12.3466 11.3132 12.5575C11.4892 12.7684 11.7176 12.8738 11.9982 12.8738ZM11.9966 22.5744C11.7385 22.5744 11.5184 22.4845 11.3364 22.3047C11.1543 22.1249 11.0633 21.8985 11.0633 21.6254V19.1695C9.37342 19.0068 7.90549 18.331 6.65949 17.142C5.41347 15.9531 4.69082 14.53 4.49154 12.8727C4.46617 12.5807 4.53665 12.3275 4.70296 12.1132C4.86926 11.8989 5.12542 11.7918 5.47144 11.7918C5.69116 11.7918 5.88341 11.8678 6.04819 12.0198C6.21296 12.1718 6.31001 12.3581 6.33936 12.5787C6.53538 13.97 7.16942 15.1197 8.24149 16.0276C9.31354 16.9356 10.5665 17.3896 12.0004 17.3896C13.4344 17.3896 14.6873 16.9356 15.7592 16.0276C16.8311 15.1197 17.4651 13.97 17.6611 12.5787C17.6905 12.3581 17.7905 12.1718 17.9613 12.0198C18.1322 11.8678 18.3381 11.7918 18.579 11.7918C18.879 11.7918 19.1185 11.9021 19.2975 12.1227C19.4765 12.3434 19.547 12.5997 19.5089 12.8918C19.2716 14.545 18.5448 15.964 17.3285 17.1486C16.1122 18.3332 14.6441 19.0068 12.9242 19.1695V21.6255C12.9242 21.8985 12.8341 22.1249 12.654 22.3047C12.4739 22.4845 12.2548 22.5744 11.9966 22.5744Z" fill="black"/>
</svg>
