<svg width="24" height="24" viewBox="0 0 24 24" fill="none" xmlns="http://www.w3.org/2000/svg">
<path d="M6 11C5.99842 12.5729 6.61451 14.0834 7.71565 15.2065C8.81678 16.3297 10.3149 16.9755 11.8875 17.005C12.8133 17.0223 13.7214 16.8253 14.5449 16.4396L12.9133 14.8944C12.6484 14.9565 12.376 14.9919 12.1 14.9988C11.0568 15.0249 10.0447 14.6423 9.27963 13.9326C8.51457 13.2228 8.05716 12.2422 8.005 11.2L8 11V10.2413L2.5708 5.0996L3.94604 3.64746L21.5828 20.3503L20.2075 21.8024L16.0725 17.8864C15.1387 18.4387 14.0948 18.7999 13.001 18.938L13 22H11V18.938C9.10933 18.6994 7.36589 17.7938 6.08339 16.3843C4.80089 14.9747 4.06354 13.1537 4.004 11.249L4 11H6Z" fill="black"/>
<path d="M18.8972 15.0535L17.3953 13.6311C17.7575 12.8866 17.9652 12.0681 17.996 11.225L18 11H20C20 12.4344 19.6147 13.8326 18.8972 15.0535Z" fill="black"/>
<path d="M8.15888 4.88383L15.8312 12.1499C15.9422 11.7801 16 11.393 16 11V6L15.995 5.8C15.9437 4.77504 15.5004 3.80901 14.7568 3.10172C14.0132 2.39444 13.0262 2 12 2C10.9391 2 9.92172 2.42143 9.17157 3.17157C8.69092 3.65222 8.34523 4.2426 8.15888 4.88383Z" fill="black"/>
</svg>
