<svg width="24" height="24" viewBox="0 0 24 24" fill="none" xmlns="http://www.w3.org/2000/svg">
<path fill-rule="evenodd" clip-rule="evenodd" d="M16.7168 4.11937L16.8262 4.22104L19.6547 7.04947C20.4002 7.79501 20.4341 8.98273 19.7563 9.76847L19.6547 9.87789L9.46227 20.0703H5.30542C4.52877 20.0703 3.88998 19.48 3.81316 18.7236L3.80542 18.5703V14.4134L13.9978 4.22104C14.7434 3.47549 15.9311 3.44161 16.7168 4.11937ZM20 18.0001V20.0001H12L14 18.0001H20ZM12.5836 8.46368L5.80598 15.2413V18.0697L8.63511 18.069L15.412 11.2921L12.5836 8.46368ZM15.412 5.63525L13.9978 7.04947L16.8262 9.87789L18.2404 8.46368L15.412 5.63525Z" fill="black"/>
</svg>
