<svg width="24" height="24" viewBox="0 0 24 24" fill="none" xmlns="http://www.w3.org/2000/svg">
<g clip-path="url(#clip0_46_1010)">
<path d="M-0.407715 14.9961V9.00371H1.32164V14.9961H-0.407715ZM2.66239 17.2151V6.78468H4.39174V17.2151H2.66239ZM22.6781 14.9961V9.00371H24.4075V14.9961H22.6781ZM19.608 17.2151V6.78468H21.3374V17.2151H19.608ZM7.67108 21.2803C7.12883 21.2803 6.67018 21.0928 6.29511 20.7177C5.92003 20.3427 5.73249 19.884 5.73249 19.3418V4.65208C5.73249 4.11566 5.92003 3.65947 6.29511 3.28348C6.67018 2.90748 7.12883 2.71948 7.67108 2.71948H16.3347C16.8711 2.71948 17.3273 2.90748 17.7033 3.28348C18.0793 3.65947 18.2673 4.11566 18.2673 4.65208V19.3418C18.2673 19.884 18.0793 20.3427 17.7033 20.7177C17.3273 21.0928 16.8711 21.2803 16.3347 21.2803H7.67108ZM7.67108 19.3418H16.3347V4.65208H7.67108V19.3418Z" fill="black"/>
</g>
<defs>
<clipPath id="clip0_46_1010">
<rect width="24" height="24" fill="white"/>
</clipPath>
</defs>
</svg>
