<svg width="24" height="24" viewBox="0 0 24 24" fill="none" xmlns="http://www.w3.org/2000/svg">
<g clip-path="url(#clip0_46_1013)">
<path d="M0.467635 9.00371C0.706885 9.00371 0.909035 9.08757 1.07409 9.25528C1.23912 9.42298 1.32164 9.62318 1.32164 9.85588V14.1189C1.32164 14.3679 1.23749 14.5763 1.06921 14.7442C0.900944 14.9121 0.697777 14.9961 0.45971 14.9961C0.221627 14.9961 0.0175352 14.9121 -0.152565 14.7442C-0.322665 14.5763 -0.407715 14.3679 -0.407715 14.1189V9.85588C-0.407715 9.62318 -0.32164 9.42298 -0.14949 9.25528C0.0226602 9.08757 0.228385 9.00371 0.467635 9.00371ZM3.53774 6.78468C3.777 6.78468 3.97915 6.86854 4.14419 7.03626C4.30922 7.20396 4.39174 7.40416 4.39174 7.63686V16.338C4.39174 16.5869 4.30759 16.7953 4.13931 16.9633C3.97104 17.1312 3.76788 17.2151 3.52981 17.2151C3.29173 17.2151 3.08764 17.1312 2.91754 16.9633C2.74744 16.7953 2.66239 16.5869 2.66239 16.338V7.63686C2.66239 7.40416 2.74846 7.20396 2.92061 7.03626C3.09276 6.86854 3.29847 6.78468 3.53774 6.78468ZM23.5493 9.00371C23.7874 9.00371 23.9899 9.08757 24.1569 9.25528C24.324 9.42298 24.4075 9.62318 24.4075 9.85588V14.1189C24.4075 14.3679 24.3229 14.5763 24.1539 14.7442C23.9848 14.9121 23.7806 14.9961 23.5414 14.9961C23.3021 14.9961 23.0984 14.9121 22.9303 14.7442C22.7622 14.5763 22.6781 14.3679 22.6781 14.1189V9.85588C22.6781 9.62318 22.7638 9.42298 22.9352 9.25528C23.1065 9.08757 23.3112 9.00371 23.5493 9.00371ZM20.4792 6.78468C20.7173 6.78468 20.9198 6.86854 21.0868 7.03626C21.2539 7.20396 21.3374 7.40416 21.3374 7.63686V16.338C21.3374 16.5869 21.2528 16.7953 21.0838 16.9633C20.9147 17.1312 20.7105 17.2151 20.4713 17.2151C20.232 17.2151 20.0283 17.1312 19.8602 16.9633C19.6921 16.7953 19.608 16.5869 19.608 16.338V7.63686C19.608 7.40416 19.6937 7.20396 19.8651 7.03626C20.0364 6.86854 20.2411 6.78468 20.4792 6.78468ZM7.67108 21.2803C7.13068 21.2803 6.67249 21.0923 6.29649 20.7163C5.92049 20.3403 5.73249 19.8822 5.73249 19.3418V4.65208C5.73249 4.11566 5.92049 3.65947 6.29649 3.28348C6.67249 2.90748 7.13068 2.71948 7.67108 2.71948H16.3347C16.8711 2.71948 17.3273 2.90748 17.7033 3.28348C18.0793 3.65947 18.2673 4.11566 18.2673 4.65208V19.3418C18.2673 19.8822 18.0793 20.3403 17.7033 20.7163C17.3273 21.0923 16.8711 21.2803 16.3347 21.2803H7.67108Z" fill="black"/>
</g>
<defs>
<clipPath id="clip0_46_1013">
<rect width="24" height="24" fill="white"/>
</clipPath>
</defs>
</svg>
