<svg width="24" height="24" viewBox="0 0 24 24" fill="none" xmlns="http://www.w3.org/2000/svg">
<path fill-rule="evenodd" clip-rule="evenodd" d="M4.88558 6.80225C4.028 6.80225 3.30036 7.01466 2.76803 7.50154C2.2307 7.9922 2 8.70489 2 9.55181V14.4486C2 15.2963 2.23091 16.0105 2.76427 16.5091L2.77158 16.5156C3.30401 16.9914 4.03026 17.1981 4.88558 17.1981H6.81708C7.05854 17.1981 7.25429 17.0024 7.25429 16.7609V15.7271C7.25429 15.4857 7.05854 15.2899 6.81708 15.2899H4.74956C4.50713 15.2899 4.34976 15.2211 4.23565 15.112C4.11074 14.9925 4.0578 14.8653 4.0578 14.707V9.29337C4.0578 9.1351 4.11074 9.00788 4.23565 8.88841C4.34976 8.77925 4.50713 8.71042 4.74956 8.71042H6.81708C7.05854 8.71042 7.25429 8.51468 7.25429 8.27321V7.23946C7.25429 6.99799 7.05854 6.80225 6.81708 6.80225H4.88558ZM11.7008 6.80225C10.8431 6.80225 10.1155 7.01467 9.58315 7.50159C9.04586 7.99224 8.81517 8.70492 8.81517 9.55181V14.4486C8.81517 15.2963 9.04608 16.0105 9.57944 16.5091L9.58675 16.5156C10.1192 16.9914 10.8454 17.1981 11.7008 17.1981H12.2448C13.0994 17.1981 13.8242 16.9914 14.349 16.5122C14.8933 16.0143 15.1304 15.299 15.1304 14.4486V9.55181C15.1304 8.70403 14.8946 7.99151 14.3489 7.50162C13.8244 7.01347 13.0999 6.80225 12.2448 6.80225H11.7008ZM17.3461 6.80225C17.1047 6.80225 16.9089 6.99799 16.9089 7.23946V8.27321C16.9089 8.51468 17.1047 8.71042 17.3461 8.71042H18.9784C19.2208 8.71042 19.3782 8.77925 19.4923 8.8884C19.6172 9.00788 19.6702 9.1351 19.6702 9.29337V10.2455C19.6702 10.5814 19.652 10.8101 19.6242 10.9487C19.5991 11.0744 19.5471 11.2091 19.4604 11.3536L19.4589 11.3562L19.457 11.3595C19.3675 11.514 19.1819 11.7955 18.8915 12.213L16.6369 15.4258V17.1981H21.5628C21.8043 17.1981 22 17.0024 22 16.7609V15.7271C22 15.4857 21.8043 15.2899 21.5628 15.2899H19.1708L20.6958 13.1364L20.6972 13.1345C20.9717 12.7409 21.1781 12.421 21.3079 12.1812C21.4477 11.9232 21.5511 11.6351 21.622 11.3212C21.6955 10.9958 21.728 10.5927 21.728 10.1231V9.55181C21.728 8.70406 21.4922 7.99156 20.9465 7.50166C20.422 7.01348 19.6974 6.80225 18.8424 6.80225H17.3461ZM11.0508 8.88841C11.1649 8.77925 11.3223 8.71042 11.5647 8.71042H12.3809C12.6233 8.71042 12.7807 8.77925 12.8948 8.88841C13.0197 9.00788 13.0726 9.1351 13.0726 9.29337V14.707C13.0726 14.8653 13.0197 14.9925 12.8948 15.112C12.7807 15.2211 12.6233 15.2899 12.3809 15.2899H11.5647C11.3223 15.2899 11.1649 15.2211 11.0508 15.112C10.9259 14.9925 10.873 14.8653 10.873 14.707V9.29337C10.873 9.1351 10.9259 9.00788 11.0508 8.88841Z" fill="black"/>
</svg>
