<svg width="24" height="24" viewBox="0 0 24 24" fill="none" xmlns="http://www.w3.org/2000/svg">
<path d="M16 7C16 7 14 6 12 6C10 6 8 7 8 7V13.65C8 15.605 10.405 17.1 12 17.6C13.585 17.1 16 15.605 16 13.65V7Z" fill="black"/>
<path fill-rule="evenodd" clip-rule="evenodd" d="M20 4C20 4 16 2 12 2C8 2 4 4 4 4V14.09C4 18 8.81 21 12 22C15.17 21 20 18 20 14.09V4ZM15.8931 17.6126C14.7116 18.6174 13.2501 19.408 11.9981 19.8836C10.7409 19.4084 9.27985 18.618 8.10053 17.6136C6.69412 16.4158 6 15.1942 6 14.09V5.30977C6.32341 5.18178 6.70572 5.03961 7.13246 4.89737C8.53263 4.43064 10.3025 4 12 4C13.6975 4 15.4674 4.43064 16.8675 4.89737C17.2943 5.03961 17.6766 5.18178 18 5.30977V14.09C18 15.1913 17.3042 16.4127 15.8931 17.6126Z" fill="black"/>
</svg>
