<svg width="24" height="24" viewBox="0 0 24 24" fill="none" xmlns="http://www.w3.org/2000/svg">
<path d="M18.0185 22C17.4685 22 16.9976 21.8042 16.606 21.4125C16.2143 21.0208 16.0185 20.55 16.0185 20C16.0185 19.45 16.2143 18.9792 16.606 18.5875C16.9976 18.1958 17.4685 18 18.0185 18C18.5685 18 19.0393 18.1958 19.431 18.5875C19.8226 18.9792 20.0185 19.45 20.0185 20C20.0185 20.55 19.8226 21.0208 19.431 21.4125C19.0393 21.8042 18.5685 22 18.0185 22Z" fill="black"/>
<path d="M8.01848 22C7.46848 22 6.99764 21.8042 6.60598 21.4125C6.21431 21.0208 6.01848 20.55 6.01848 20C6.01848 19.45 6.21431 18.9792 6.60598 18.5875C6.99764 18.1958 7.46848 18 8.01848 18C8.56848 18 9.03931 18.1958 9.43098 18.5875C9.82264 18.9792 10.0185 19.45 10.0185 20C10.0185 20.55 9.82264 21.0208 9.43098 21.4125C9.03931 21.8042 8.56848 22 8.01848 22Z" fill="black"/>
<path fill-rule="evenodd" clip-rule="evenodd" d="M6.21848 4L20.9685 4C21.3518 4 21.6435 4.17083 21.8435 4.5125C22.0435 4.85417 22.0518 5.2 21.8685 5.55L18.3185 11.95C18.1351 12.2833 17.8893 12.5417 17.581 12.725C17.2726 12.9083 16.9351 13 16.5685 13L9.11848 13L8.01848 15L20.0185 15V17L8.01848 17C7.26848 17 6.70181 16.6708 6.31848 16.0125C5.93514 15.3542 5.91848 14.7 6.26848 14.05L7.61848 11.6L4.01848 4H2V2H5.26848L6.21848 4ZM9.56848 11L7.16848 6L19.3185 6L16.5685 11L9.56848 11Z" fill="black"/>
</svg>
