<svg width="24" height="24" viewBox="0 0 24 24" fill="none" xmlns="http://www.w3.org/2000/svg">
<path fill-rule="evenodd" clip-rule="evenodd" d="M8.35012 19.4751L5.75012 20.6001L4.67512 23.0001L3.60012 20.6001L1.00012 19.4751L3.60012 18.3501L4.67512 15.8251L5.75012 18.3501L8.35012 19.4751ZM17.9501 9.7251L22.9751 11.9751L17.9501 14.2251L15.6501 19.1501L13.3251 14.2251L8.32512 11.9751L13.3251 9.7251L15.6501 4.8251L17.9501 9.7251ZM15.6403 9.51118L16.4551 11.247L18.0811 11.9751L16.4531 12.7041L15.6403 14.4445L14.8187 12.704L13.1988 11.9751L14.8167 11.2471L15.6403 9.51118ZM1.00012 4.4751L3.60012 3.3501L4.67512 0.975098L5.75012 3.3501L8.35012 4.4751L5.75012 5.6251L4.67512 8.1251L3.60012 5.6251L1.00012 4.4751Z" fill="black"/>
</svg>
