<svg width="24" height="24" viewBox="0 0 24 24" fill="none" xmlns="http://www.w3.org/2000/svg">
<path d="M19.5 11.9749C19.5 10.4083 19.0625 8.99992 18.1875 7.74992C17.3125 6.49992 16.1667 5.59159 14.75 5.02492C14.55 4.94159 14.4083 4.80825 14.325 4.62492C14.2417 4.44159 14.2417 4.25825 14.325 4.07492C14.4083 3.87492 14.5542 3.73742 14.7625 3.66242C14.9708 3.58742 15.1833 3.59159 15.4 3.67492C17.0833 4.35825 18.4375 5.44992 19.4625 6.94992C20.4875 8.44992 21 10.1249 21 11.9749C21 13.8249 20.4875 15.4999 19.4625 16.9999C18.4375 18.4999 17.0833 19.5916 15.4 20.2749C15.1833 20.3583 14.9708 20.3624 14.7625 20.2874C14.5542 20.2124 14.4083 20.0749 14.325 19.8749C14.2417 19.6916 14.2417 19.5083 14.325 19.3249C14.4083 19.1416 14.55 19.0083 14.75 18.9249C16.1667 18.3583 17.3125 17.4499 18.1875 16.1999C19.0625 14.9499 19.5 13.5416 19.5 11.9749ZM7 14.9999H3.75C3.53333 14.9999 3.35417 14.9291 3.2125 14.7874C3.07083 14.6458 3 14.4666 3 14.2499V9.74992C3 9.53325 3.07083 9.35409 3.2125 9.21242C3.35417 9.07075 3.53333 8.99992 3.75 8.99992H7L10.725 5.27492C10.9583 5.04159 11.2292 4.98742 11.5375 5.11242C11.8458 5.23742 12 5.46659 12 5.79992V18.1999C12 18.5333 11.8458 18.7624 11.5375 18.8874C11.2292 19.0124 10.9583 18.9583 10.725 18.7249L7 14.9999ZM16.5 11.9999C16.5 12.8666 16.2833 13.6499 15.85 14.3499C15.4167 15.0499 14.8083 15.5833 14.025 15.9499C13.8917 16.0166 13.7708 16.0083 13.6625 15.9249C13.5542 15.8416 13.5 15.7333 13.5 15.5999V8.37492C13.5 8.24159 13.5542 8.13325 13.6625 8.04992C13.7708 7.96659 13.8917 7.95825 14.025 8.02492C14.8083 8.39159 15.4167 8.93325 15.85 9.64992C16.2833 10.3666 16.5 11.1499 16.5 11.9999Z" fill="black"/>
</svg>
