<svg width="24" height="24" viewBox="0 0 24 24" fill="none" xmlns="http://www.w3.org/2000/svg">
<path d="M17.0678 12.388C16.949 12.388 16.8314 12.3659 16.7151 12.3218C16.5987 12.2777 16.498 12.2041 16.413 12.101L11.8989 7.58691C11.7958 7.50191 11.7223 7.39956 11.6781 7.27986C11.634 7.16014 11.6119 7.04053 11.6119 6.92103C11.6119 6.79746 11.634 6.67886 11.6782 6.56521C11.7223 6.45157 11.7959 6.34124 11.8989 6.23421L16.413 1.72603C16.498 1.63568 16.6 1.56427 16.7189 1.51181C16.8378 1.45934 16.9566 1.43311 17.0752 1.43311C17.1979 1.43311 17.3166 1.45943 17.4315 1.51208C17.5463 1.56473 17.6577 1.63605 17.7657 1.72603L22.2739 6.23421C22.3639 6.34224 22.4352 6.45476 22.4878 6.57178C22.5405 6.68881 22.5668 6.80868 22.5668 6.93138C22.5668 7.04998 22.5406 7.16764 22.4881 7.28436C22.4356 7.40106 22.3642 7.50191 22.2739 7.58691L17.7657 12.101C17.6576 12.204 17.5449 12.2776 17.4278 12.3218C17.3106 12.3659 17.1906 12.388 17.0678 12.388ZM3.08745 10.8277C2.80854 10.8277 2.57785 10.736 2.39538 10.5528C2.21291 10.3695 2.12169 10.1432 2.1217 9.87388V3.50268C2.1217 3.23333 2.21294 3.00702 2.3954 2.82376C2.57787 2.64051 2.80856 2.54888 3.08748 2.54888H9.4467C9.72164 2.54888 9.95034 2.64051 10.1328 2.82376C10.3153 3.00702 10.4065 3.23333 10.4065 3.50268V9.87388C10.4065 10.1432 10.3153 10.3695 10.1328 10.5528C9.95034 10.736 9.72164 10.8277 9.4467 10.8277H3.08745ZM14.1451 21.8782C13.8757 21.8782 13.6494 21.787 13.4662 21.6045C13.2829 21.4221 13.1913 21.1914 13.1913 20.9125V14.5722C13.1913 14.2973 13.2829 14.0686 13.4662 13.8862C13.6494 13.7037 13.8757 13.6125 14.1451 13.6125H20.4972C20.7666 13.6125 20.9929 13.7037 21.1762 13.8862C21.3594 14.0686 21.451 14.2973 21.451 14.5722V20.9125C21.451 21.1914 21.3594 21.4221 21.1762 21.6045C20.9929 21.787 20.7666 21.8782 20.4972 21.8782H14.1451ZM3.08745 21.8782C2.80854 21.8782 2.57785 21.787 2.39538 21.6045C2.21291 21.4221 2.12169 21.1914 2.1217 20.9125V14.5532C2.1217 14.2783 2.21294 14.0496 2.3954 13.8671C2.57787 13.6847 2.80856 13.5934 3.08748 13.5934H9.4467C9.72164 13.5934 9.95034 13.6847 10.1328 13.8671C10.3153 14.0496 10.4065 14.2783 10.4065 14.5532V20.9125C10.4065 21.1914 10.3153 21.4221 10.1328 21.6045C9.95034 21.787 9.72163 21.8782 9.44668 21.8782L3.08745 21.8782Z" fill="black"/>
</svg>
