<svg width="24" height="24" viewBox="0 0 24 24" fill="none" xmlns="http://www.w3.org/2000/svg">
<path fill-rule="evenodd" clip-rule="evenodd" d="M12.0024 14.9337L15.1531 16.8393L14.3186 13.2585L17.1075 10.842L13.4394 10.5306L11.9993 7.13218L10.5601 10.5207L6.89313 10.832L9.68201 13.2485L8.84617 16.835L12.0024 14.9337ZM17.6403 18.6998C17.8403 19.5598 16.9103 20.2398 16.1503 19.7798L12.0003 17.2698L7.85032 19.7698C7.09032 20.2298 6.16032 19.5498 6.36032 18.6898L7.46032 13.9698L3.79032 10.7898C3.12032 10.2098 3.48032 9.10977 4.36032 9.03977L9.19032 8.62977L11.0803 4.17977C11.4203 3.36977 12.5803 3.36977 12.9203 4.17977L14.8103 8.63977L19.6403 9.04977C20.5203 9.11977 20.8803 10.2198 20.2103 10.7998L16.5403 13.9798L17.6403 18.6998Z" fill="black"/>
</svg>
