<svg width="24" height="24" viewBox="0 0 24 24" fill="none" xmlns="http://www.w3.org/2000/svg">
<path d="M2.69826 10.08C2.97925 9.74269 3.33086 9.47113 3.72827 9.28452C4.12569 9.0979 4.55922 9.0008 4.99826 9.00004H9.55826L8.99826 7.57004C8.76533 6.94393 8.68776 6.27065 8.7722 5.60797C8.85664 4.94528 9.10057 4.31297 9.48308 3.76527C9.86558 3.21758 10.3752 2.77084 10.9683 2.46339C11.5614 2.15593 12.2202 1.99694 12.8883 2.00004C13.0806 2.00045 13.2688 2.05632 13.4302 2.16097C13.5916 2.26561 13.7194 2.41459 13.7983 2.59004L16.6483 9.00004H18.9983C19.7939 9.00004 20.557 9.31611 21.1196 9.87872C21.6822 10.4413 21.9983 11.2044 21.9983 12V19C21.9983 19.7957 21.6822 20.5588 21.1196 21.1214C20.557 21.684 19.7939 22 18.9983 22H6.26826C5.56645 21.9998 4.88693 21.7535 4.34794 21.3041C3.80894 20.8546 3.44459 20.2304 3.31826 19.54L2.04826 12.54C1.96971 12.1074 1.98722 11.6628 2.09954 11.2377C2.21187 10.8126 2.41626 10.4174 2.69826 10.08ZM16.9983 20H18.9983C19.2635 20 19.5178 19.8947 19.7054 19.7072C19.8929 19.5196 19.9983 19.2653 19.9983 19V12C19.9983 11.7348 19.8929 11.4805 19.7054 11.2929C19.5178 11.1054 19.2635 11 18.9983 11H16.9983V20ZM3.99826 12.18L5.26826 19.18C5.31086 19.413 5.43475 19.6233 5.61787 19.7734C5.801 19.9236 6.03147 20.0039 6.26826 20H14.9983V10.21L12.2783 4.09004C11.9983 4.17167 11.7383 4.31045 11.5146 4.49763C11.291 4.6848 11.1085 4.91631 10.9789 5.17754C10.8492 5.43876 10.7751 5.72404 10.7612 6.01535C10.7473 6.30666 10.794 6.59768 10.8983 6.87004L11.4283 8.30005C11.5412 8.6023 11.5793 8.92739 11.5394 9.24758C11.4995 9.56776 11.3826 9.87353 11.1989 10.1388C11.0152 10.404 10.77 10.6209 10.4844 10.7709C10.1987 10.9209 9.88093 10.9995 9.55826 11H4.99826C4.85135 10.9998 4.70619 11.0319 4.57311 11.0942C4.44002 11.1564 4.32228 11.2472 4.22826 11.36C4.13193 11.4714 4.06136 11.6026 4.02161 11.7443C3.98185 11.8861 3.97388 12.0349 3.99826 12.18Z" fill="black"/>
</svg>
