<svg width="24" height="24" viewBox="0 0 24 24" fill="none" xmlns="http://www.w3.org/2000/svg">
<path d="M10.4392 14.8245L17.3795 10.3604L10.4392 5.89026V14.8245ZM6.74413 19.3153C6.22665 19.3153 5.77517 19.1199 5.38971 18.7291C5.00424 18.3383 4.81151 17.8895 4.81151 17.3826V3.41416C4.81151 2.90568 5.00424 2.45546 5.38971 2.06351C5.77517 1.67156 6.22665 1.47559 6.74413 1.47559H20.7126C21.2211 1.47559 21.6703 1.67156 22.0603 2.06351C22.4502 2.45546 22.6452 2.90568 22.6452 3.41416V17.3826C22.6452 17.8895 22.4502 18.3383 22.0603 18.7291C21.6703 19.1199 21.2211 19.3153 20.7126 19.3153H6.74413ZM6.74413 17.3826H20.7126V3.41416H6.74413V17.3826ZM3.31151 22.7479C2.79239 22.7479 2.34051 22.5529 1.95586 22.1629C1.57122 21.773 1.37891 21.3237 1.37891 20.8153V4.91416H3.31151V20.8153H19.2126V22.7479L3.31151 22.7479Z" fill="black"/>
</svg>
